<svg xmlns="http://www.w3.org/2000/svg" viewBox="-42 -45 600 600"><path fill="#124568" d="M274 20q-8-4-15-4H80l-26 1q-10 1-15 7-8 8-8 19v59l1 126v102c0 12-2 22 6 31s15 7 26 7h17c0 4-1 16 1 19 2 2 8 1 10 1h9c4 1 12 1 12-5v-15h9v12q-2 8 6 8h23l3-1v-1l1-1v-11c0-7 10-7 10 0v13l2 1h30v-15c0-6 10-6 10 0v13l1 1v1h27c3-4 2-15 2-20h16q14 1 26-6 8-8 7-20V55c0-13 2-27-12-35m78 348c-10 0-20 2-28-6q-7-7-7-16V51c0-9-1-20 6-27q8-8 19-8l26 1h81c10 0 21-1 29 6q7 10 7 22v290c0 10 1 20-6 27q-8 8-19 6h-12v1-9c8-1 18 1 23-4q4-3 5-8v-19l-1-31V37q0-4-3-8-4-4-10-3H337q-8 1-10 8l-1 9v256l-1 33c1 18-1 29 22 27h5z"/><path fill="#062a47" d="M438 338q-8-2-11-9-2-7 1-14 3-6 9-8c17-5 32 15 18 28l-7 4"/><path fill="#b8e8fa" d="M441 316h2c8-1 12 7 5 13q1-6-2-10c-8-3-7 6-7 11-5-4-4-12 2-14"/><path fill="#124568" d="M395 338q-7-1-10-9c-7-14 9-27 22-21 9 3 13 13 9 21q-3 7-10 9l-2-1 1-7h-10z"/><path d="m353 330-3-4c-2-6 4-13 10-11l5 4c2 4 1 11-3 12v-1z" style="fill:#f9ecf5"/><path fill="#c02a35" d="M354 330c0-3-3-7-1-9 4-5 9-1 9 4v5z"/><path fill="#124568" d="M398 42a58 58 0 1 1 5 115 58 58 0 0 1-5-115"/><path d="M397 51a49 49 0 0 1 9 97h-2a49 49 0 0 1-7-97" style="fill:#c5ebf8"/><path fill="#87c8e8" d="M358 100v-3q1-17 14-29c8-8 22-10 33-10 7 0 17 4 22 9l-1 2q0 3-3 7c-3-1-8-6-13-7l-10-1-2-2q-10 2-19 9-12 10-12 26z"/><path fill="#020202" d="M383 74h2l11 12 12 7q6 7-1 14-4 4-10 2-7-3-7-10v-7l-3-6-3-6q-2-4-1-6"/><path fill="#cf1211" d="M423 76q3-4 3-7v-2c12 10 17 19 16 35l-8-1c-2-2-3-9-4-12q-2-7-7-13"/><path fill="#124568" d="M398 182h11c6 3 3 13 8 17 4 2 9-4 13-5q6 2 11 8 4 3 5 8c1 1-4 6-5 7l4 9c6 1 11 0 11 8v14c-3 5-11 2-13 8-2 5 0 6 2 11 2 3-3 8-5 10-8 9-10 7-18 2l-8 3c-1 10-2 12-14 12-8-1-12-2-13-11q-3-4-7-3c-5-1-5 2-9 3h-1c-5-1-14-10-16-16l6-6q0-5-4-9-4 1-9-3-3-6-2-14-1-5 3-8 4-2 9-1 3-3 3-8l-5-9c4-6 10-14 17-15l8 5c2-1 8-4 8-7 0-9 0-10 10-10"/><path fill="#87c8e8" d="m370 203 8 5q5 0 9-4l-2 11q-4 14-5 28 2 10 11 15c12 6 27-1 29-14l-1-13-5-27q2 3 7 4 6 1 10-5l6 6-6 7 8 18h10l-1 10h-9c-2 3-7 14-7 17q2 4 5 6-3 5-7 6l-7-4-12 5-4 2c-2 1-2 8-2 10l-10-1c-1-7 2-9-7-12l-11-4-6 5-7-5 5-8c0-4-5-12-7-16l-8-1-1-9 8-2c4-3 7-11 8-16q0-4-4-7h-1z"/><path fill="#cf1211" d="M399 190h5l2 15 5 24 2 11q-1 9-10 13l-7-1c-8-3-7-11-7-18l4-21 4-23z"/><path fill="#750b19" d="M401 239q3 0 2 2l-1 1-3-1z"/><path fill="#fff" d="m156 485 11-1h264l6 2h1-283z"/><path fill="#fff" d="M438 452v26l-1 8h-1l1-3v-8q-2-10 0-21l-1-1z"/><path fill="#cf1211" d="m362 369-1 57q1 5-5 4H218l-1-1c-2-5-1-33 0-41h8l1 33h54l72-1v-90h2q4 2 8-1v12l-1 13v6m1 8v1m0-9v8"/><path fill="#750b19" d="M353 330h1q4 2 8-1v12l-1-8h-7l-2 5v-8z"/><path fill="#fff" d="M167 388v1h1l5-1z"/><path fill="#b8e8fa" d="M94 26h170q12 2 13 13v298q2 10-4 18c-6 8-11 4-18 5H72l-18-1q-8-1-12-8l-2-8V54c0-7-1-18 5-24s16-4 24-4z"/><path fill="#124568" d="M155 54h2c45-2 86 35 87 81q1 34-22 59a80 80 0 0 1-59 27l-20-1c-38-8-66-39-69-77-2-47 34-87 81-89"/><path d="m157 62 20 2q26 7 42 27 19 25 16 55-5 31-29 51l-10-18c-4-6-12-5-18-5h-35c-4 0-15 0-18 2-6 4-11 15-14 21l-9-9a73 73 0 0 1-2-98q23-26 57-28" style="fill:#c0ebf8"/><path fill="#2884c3" d="M90 137v-3a67 67 0 0 1 70-64l-6 9q-14 3-27 10l-6 3-1 1c2 1 7 9 5 11-3 1-10-3-12-5l-1 2-4 8c-2 4-9 21-7 24-2 2-9 1-11 4"/><path fill="#124568" d="m115 91 5 2c2 2 8 9 5 11-3 1-10-3-12-5q-1-4 2-8"/><path fill="#020202" d="M189 106c0 4-9 16-11 19l-5 7v8q-1 5-5 8-8 6-16 3l-5 6q-3 2-6-2l-4-4 8-7q-3-21 18-20l8-6z"/><path fill="#2884c3" d="M157 130c10 0 11 8 3 13l-2 1-1-1c-6-1-7-10 0-13"/><path fill="#53a8db" d="M161 70c12-2 39 10 45 19v1q-3-1-6 2l-2 1-5-3c-8-4-21-10-30-9v7l-5 1q-6-4-3-10l5-9z"/><path fill="#062a47" d="M161 70h1l1 11v6l-5 2q-6-3-3-10l5-9z"/><path fill="#cf1211" d="M207 91q21 18 20 47c-4-2-4-3-10-4-1-6-10-33-14-35z"/><path fill="#062a47" d="M102 134q5-1 8 2c3 8-17 6-19 4l-1-3c2-3 9-2 12-3m105 4q3-7 10-4c6 1 6 2 10 4v1c-1 3-9 3-12 3q-6 1-8-4"/><path fill="#020202" d="m198 94 2-2 6-2 1 1-4 8q-3 4-7 6c-7-4-2-7 2-11"/><path fill="#87c8e8" d="m132 182 52 1q7 0 10 9l4 9q-8 6-18 9l-19 2q-22 1-43-11l10-16q1-3 4-3"/><path fill="#062a47" d="M142 191h28q6-1 10 3 2 6-5 5h-33q-7 0-3-7z"/><path d="M82 246h27q6 0 6 6v66q0 8-8 6H79q-5-1-5-6v-65q0-9 8-7" style="fill:#233353"/><path fill="#b8e8fa" d="M85 286h21v30H82v-30z"/><path fill="#c02a35" d="m82 254 25-1v9l-4 1c-4 1-13 1-16-1l-5-1z"/><path d="m107 262-4 1c-4 1-13 1-16-1z" style="fill:#331332"/><path fill="#c02a35" d="M95 270h11l1 8-14 1-11-1 1-8z"/><path fill="#124568" d="M207 246h31l3 1q3 2 3 5v64q1 5-4 8h-30l-4-1c-4-2-3-9-3-13v-58q0-4 4-6"/><path fill="#b8e8fa" d="M212 254h23v30h-23z"/><path fill="#53a8db" d="m211 292 24 1v8l-10-1-14 1zm0 18h25l-1 6h-24z"/><path fill="#124568" d="M143 246h30q5 0 6 5v68q1 6-5 5h-30q-3 1-5-2l-1-21 1-37v-13q0-4 4-5"/><path fill="#87c8e8" d="M164 254h7v62h-24v-62z"/><path fill="#2884c3" d="m156 271-6-2 7-7c3-3 6 1 7 4l2 1 2 2-5 1v34c2 10-12 7-10-1l3-4z"/><path d="m156 271-6-2 7-7c3-3 6 1 7 4l2 1 2 2-5 1-3 2c-2 2-1 21-1 25v6h-2l-1-12z" style="fill:#1c638b"/><path fill="#2884c3" d="m164 266 2 1q-4 2-7 0z"/><path fill="#53a8db" d="m156 266 1 2h-1l-2-1z"/><path fill="#124568" d="m153 303 6 2 4-1c2 10-12 7-10-1"/><path fill="#53a8db" d="M163 302v-12 14h-4v-1z"/><path fill="#124568" d="M255 333c8 0 13 8 4 13h-4l-4-3q-2-6 4-10m0-293c8-1 13 9 3 12-8 1-12-8-3-12M61 40c8 1 9 11 0 12q-5 0-7-6 3-4 7-6m-1 294c8-1 11 9 2 11-9 1-10-8-2-11"/><path fill="#87c8e8" d="M171 369h17l-1 11-16-1zm-40 0h16l-1 10-15 1zm82-1 16 1v10h-16zm-116 0h7v11H91v-11z"/><path d="M399 316q10 1 9 11l-3 2c0-5 1-10-6-11-6 3-3 8-1 13l-1-1q-4-1-4-6-1-2 1-5t5-3" style="fill:#a1e2ff"/><path fill="#cf1211" d="M92 388h9l1 15v76l-1 14c-2 3-9 3-9-2z"/><path fill="#124568" d="M132 387h9l1 14v77l-1 14c-3 3-9 3-9-2z"/><path fill="#020202" d="M176 451h8v-50l-1-14h-9v64z"/><path fill="#124568" d="M448 485H135v8h312l1-1z"/><path fill="#124568" d="M439 485v8h8l1-1v-7m0 0V338h-9v147"/><path fill="#020202" d="M174 451v8l1 1h228v-9z"/><path fill="#020202" d="M405 458V338h-9v122h7z"/><path fill="#124568" d="M362 359h34v8h-34zm43 0h35v8h-35z"/></svg>