<svg xmlns="http://www.w3.org/2000/svg" viewBox="-39 -34 590 590"><path fill="#0e4163" d="M359 32c3-3 3-6 10-6 5 0 12-2 17 2 2 1 2 10 2 13v37c0 3 0 12-2 14q-4 3-8 2c-4 0-13 2-16-2-2-3-1-5-6-5h-21l-1 2v29c0 3 4 7 4 11l-3 9v3l2 1c4-4 6-13 13-7q6 6 4 15c0 5 1 14-2 18q-3 4-7 3-5-2-8-8l-3 1 1 4c4 8 4 12-1 20l1 15 25 1 5-4c4-3 9 0 14 0v-2q-5-3-3-10l4-4h26q3 1 3 4l2 3q-2 5-6 8-3 1-2 3l2 2c4 0 5-5 11-5s7 3 12 5c2 1 11 0 13-2l1-1q2-11 1-22V36q-1-5 1-9h26q3 0 4 3l1 12v119l-1 40c-1 16-13 32-29 35h-19q-1 4-5 5h-12l-3-4h-24l-6 4q-9 3-15-5H257v-8l1-7v-9h-1v-8h42c5 0 4-2 5-6l-1-12c-3-3-3-3-4-8q1-7 4-13v-24l-1-2q-4-5-3-11 0-5 4-8V86H171q-7 0-7 8v28c12 4 8 8 9 17h14c9 0 23-1 31 2q8 2 12 8 8 11 6 25v12c0 2-1 9 1 9 4 0 11-1 11 5v40c0 7-8 5-12 5v31c0 8 10-5 13 12h77l9-4h11l-3-4-1-1v-6l4-4c4-2 24-2 27 0l4 4 1 3q0 4-5 7h-4q0 6 4 5c5-2 9-7 14-4l6 5 29-1c15 0 27-2 40 10q13 13 13 34v51c0 10 1 28-1 37q-3 11-10 18-9 9-21 11l-12 1-2 8c-3 2-12 1-15 0-6-1-3-4-11-4q-8 5-5 13c1 8 0 8 7 10 3 1 3 16 1 19l-13 1h-43c-5 0-14 1-17-1l-1-5q-1-7 2-14l5-2 1-6q3-7 0-12c-2-2-8-6-10-2q-3 4-8 4c-3 0-11 1-13-1-1-1-1-6-3-7l-13-2q-23-5-29-29-2-8-1-17h30q0 7 3 13 3 3 8 2c6 0 2-4 6-9h17l5 5c4 0 8-6 10-8l4-4c16-13 35-12 49 2l8 9c8 1 5 0 9-4 3-2 13-1 16 0q3 3 4 8 9 3 11-6v-84q1-3-2-4l-4-2h-16l-28-1q-2 5-8 6l-10-2-3-3h-12l-11-1-1 2q-4 4-11 3-6 0-10-4h-7l-26-1c-1 7-1 5 2 10q2 9-1 18 11 17-1 32v1q4 7 1 16h-36l-1-12 3-4-2-3q-10-16 1-30c0-7-4-12 1-19 6-10-4-9-10-9l-1 1-3 8h-1l-10 2-1 24v87c1 15 3 28-13 37l-8 5c-1 4 2 13-5 13l-18-1c-5 0-1-13-4-13h-22l-76-1c-6 0-1 10-4 14H63c-5-1-1-10-3-13l-8-4c-6-2-12-12-13-19v-34l-1-59V168l1-7 7-14q4-4 10-6l23-2h23l1-10c0-4 8-5 8-8l1-35q2-20 15-35 12-13 30-18 14-3 30-2h159z"/><path d="M264 342c7-4 22-4 27 1l4 6c8 12 7 20-1 32q4 8 1 17h-36v-12l2-4-2-4q-10-16 2-30v-4l1 1q2 0 2-3"/><path fill="#0e4163" d="m291 386 3-5q4 8 1 17h-36v-12l2-4 4 5c6 3 21 3 26-1"/><path fill="#90d0f1" d="M291 386v3l-2 3-11 2-11-1-2-2v-4c6 3 21 3 26-1"/><path fill="#c1edfa" d="m265 391 8 2h-2l7 1h-11z"/><path fill="#dd7c7d" d="M265 374q-3-4-4-10 0-5 4-9l7 9v1q2 3 5 4l9 9q-8 6-17 0z"/><path fill="#dd7c7d" d="m277 369 9 9q-8 6-17 0z"/><path fill="#35151d" d="M272 365q2 3 5 4l-8 9-3-3-1-1z"/><path fill="#dd7c7d" d="M290 355q6 9 0 18l-2-2-6-8zm-14-7 10 2-7 7-2 1-8-8z"/><path fill="#fbfefe" d="M311 187h15v21c0 6 12 4 16 4h19v10l-19-1h-85v-9h46l7-1 1-6z"/><path fill="#cce3ef" d="M257 212h46l-22 1c-4 1-20 2-24 0z"/><linearGradient id="a" x1="3223" x2="3293.1" y1="-2064.2" y2="-1997" gradientTransform="matrix(.25 0 0 -.25 -527 -84)" gradientUnits="userSpaceOnUse"><stop offset="0" style="stop-color:#b4e4f5"/><stop offset="1" style="stop-color:#fff"/></linearGradient><path d="M270 403h15q-1 11 5 19 8 5 17 4v16c-10 0-20 0-27-8-10-8-10-19-10-31" style="fill:url(#a)"/><path fill="#c1edfa" d="M257 221h85l19 1 1-2-1 9-104-1z"/><path fill="#a90e0f" d="M337 142c4-4 5-12 13-7q6 6 4 15c0 5 1 14-2 19q-3 3-7 3-5-3-8-8v-1q-1-3 2-6l1-11-1 4-1-5 1-1-1-2zv-1 3l-1-1z"/><path fill="#35151d" d="M337 142c4-4 5-12 13-7l-1 1c-1-1-5-4-6-1l3 1h-3l-1 6v23l4 4 6-3v3q-3 3-7 3-5-2-8-8v-1q-1-3 2-6l1-10-1 3-1-5 1-1-1-2zv-1 3l-1-1z"/><path fill="#8a090e" d="m345 172 2-1-5-3 3 1h-1l-1-1q-2-3-1-7v-8c0-7-2-10 2-17l-2 5 1 23q0 3 3 5l6-3v3q-3 3-7 3m-2 109-1-2v-5l4-5c4-1 24-1 27 1q3 1 3 3l1 3q0 6-4 8l-7-2-8 1-6 1-1 1-6-1z"/><linearGradient id="b" x1="3525.1" x2="3528.3" y1="-1451.8" y2="-1462.7" gradientTransform="matrix(.25 0 0 -.25 -527 -84)" gradientUnits="userSpaceOnUse"><stop offset="0" style="stop-color:#530b0b"/><stop offset="1" style="stop-color:#3b101d"/></linearGradient><path d="m343 281 1-2 4 2 8-1h8l1 1 1 1-8 1-6 1-1 1-6-1z" style="fill:url(#b)"/><path fill="#35151d" d="m364 280 1 1h-5z"/><path d="M356 280h15l3-1v-6l1 6v-6h1l1 3q-1 6-4 8l-7-2-1-1-1-1z" style="fill:#581120"/><path fill="#a90e0f" d="m356 273 18 3v2q-6 2-10 0h-4l-5-1h6l-14-1v-1z"/><linearGradient id="c" x1="3682.1" x2="3678.8" y1="-1074.3" y2="-1131.7" gradientTransform="matrix(.25 0 0 -.25 -527 -84)" gradientUnits="userSpaceOnUse"><stop offset="0" style="stop-color:#8a0506"/><stop offset="1" style="stop-color:#4f0e13"/></linearGradient><path d="M379 199q-4-4-3-9 0-3 4-5h26l3 4 1 4q-1 5-5 7l-3-1-7-1-10 1q-4 2-6 1" style="fill:url(#c)"/><path fill="#a90e0f" d="M379 194q-1-7 6-6h19v5l-3 1z"/><path fill="#8a090e" d="m404 188 3 1v5q-2 4-5 4l-7-1h-9q-4-1-7-4l22 1 3-1z"/><path fill="#1c4870" d="M39 161v92-7l1 25v169l-1 21v-35l-1-59V168z"/><path fill="#90d0f1" d="m264 335 25 1q3 4 2 7c-6-5-20-5-27-1z"/><path d="m385 198 10-1 7 1 3 2-3 2-6-3-1-1z" style="fill:#3a4263"/><path fill="#cce3ef" d="M346 284h5l-1 4v1l-6-4zm33-85q5-1 5 3-4 4-5-2z"/><path fill="#c1edfa" d="M47 176h84l55 1 26-1h16v270H91l-28 1-17-1z"/><path fill="#fbfefe" d="M47 176h84l7 1-1 35v1c-12 0-23 10-23 22q2 21 23 23v8l1 23v69H99q-5-1-6 4v16l1 26v29l1 2 38 1h5v10H91l-29 1-16-1z"/><path fill="#0e4163" d="m133 436-38-1-2-2v-71q0-5 6-5l12 1h53c3 0 14-1 16 1l1 16v54q1 4-3 6h-34z"/><path fill="#90d0f1" d="M102 366h71v62h-71z"/><path fill="#1c4870" d="M161 377h6v7l-2 1-6-1v-6z"/><path fill="#0e4163" d="M160 391h6v8h-8l1-7z"/><path fill="#1c4870" d="M160 406h6v7h-7q-1-4 1-7"/><path fill="#0e4163" d="M137 212q13 1 20 12c7 11 4 16 0 23a23 23 0 0 1-43-12c0-12 11-22 23-23"/><linearGradient id="d" x1="2708.8" x2="2602.7" y1="-1297.5" y2="-1254.3" gradientTransform="matrix(.25 0 0 -.25 -527 -84)" gradientUnits="userSpaceOnUse"><stop offset="0" style="stop-color:#cde6f1"/><stop offset="1" style="stop-color:#fff"/></linearGradient><path d="M136 220q12 0 15 12 2 11-7 17l-6 2c-18 0-23-28-2-31" style="fill:url(#d)"/><path d="m130 223 11 11q3 4-2 6l-3-1-8-10q-1-3 2-6"/><path fill="#c1edfa" d="M119 124v-22c0-19 1-31 15-46 15-17 29-16 49-15h124l53-1v39c-4 0-31-1-33 1l-1 15v25h-15V89q1-6-2-10H168q-11 1-11 11l-1 12v21h-20z"/><path fill="#fbfefe" d="M119 124v-22c0-19 1-31 15-46 15-17 29-16 49-15h124l53-1v19H179c-12 0-23 0-32 10q-12 13-9 31v23h-2zm192-39h9l-1 35h-8z"/><path fill="#c1edfa" d="M450 32h17v140l-1 31c-2 12-11 23-24 25h-17v-16c8-1 15 1 20-5q4-4 4-9v-19l1-34z"/><linearGradient id="e" x1="3644.7" x2="3965.6" y1="-1783.2" y2="-1831" gradientTransform="matrix(.25 0 0 -.25 -527 -84)" gradientUnits="userSpaceOnUse"><stop offset="0" style="stop-color:#b9e3f2"/><stop offset="1" style="stop-color:#fbffff"/></linearGradient><path d="M392 297h24c8 0 21-1 29 1 9 2 20 14 20 23 2 5 2 15 2 21v38l-1 7v15c1 12 1 22-8 31q-10 10-25 9h-2v-17q8 1 15-2 5-6 5-13v-67l-1-18q-2-8-10-11-8-2-17-1h-31z" style="fill:url(#e)"/><path fill="#fbfefe" d="M392 297h24c8 0 21-1 29 1 9 2 20 14 20 23 2 5 2 15 2 21v38l-1 7v15c1 12 1 22-8 31q-10 10-25 9h-2v-8c13 0 23-1 27-15l1-8v1l2-1-1-24v-53c0-9 1-14-5-21-8-9-16-8-26-8h-37z"/><path fill="#c1edfa" d="m466 321 1 21v38l-1 7v-26 5l-1-25z"/><linearGradient id="f" x1="4039.1" x2="3731.3" y1="-1905.4" y2="-1541.7" gradientTransform="matrix(.25 0 0 -.25 -527 -84)" gradientUnits="userSpaceOnUse"><stop offset="0" style="stop-color:#95b5b8"/><stop offset="1" style="stop-color:#b0d2e0"/></linearGradient><path d="m393 306 36-1c11 0 18-1 26 8 7 7 6 12 6 21v77l-2 2v-79q1-8-3-17c-6-12-19-10-31-10h-14 3z" style="fill:url(#f)"/><path fill="#90d0f1" d="M366 403a31 31 0 0 1 6 62 31 31 0 0 1-6-62"/><linearGradient id="g" x1="3612.2" x2="3537.7" y1="-2123.8" y2="-1973.2" gradientTransform="matrix(.25 0 0 -.25 -527 -84)" gradientUnits="userSpaceOnUse"><stop offset="0" style="stop-color:#022b4b"/><stop offset="1" style="stop-color:#0b486c"/></linearGradient><path d="M356 410c8 0 18 7 25 11 20 11 15 16-2 25l-15 8q-4 3-9 2-4-4-3-12l1-30q0-3 3-4" style="fill:url(#g)"/><linearGradient id="h" x1="3601.7" x2="3542" y1="-2098.5" y2="-2021.7" gradientTransform="matrix(.25 0 0 -.25 -527 -84)" gradientUnits="userSpaceOnUse"><stop offset="0" style="stop-color:#d2f0fa"/><stop offset="1" style="stop-color:#f7ffff"/></linearGradient><path d="m360 419 3 2 22 12-9 6-16 8z" style="fill:url(#h)"/><path fill="#c1edfa" d="M46 455h91v20H87l-26-1q-5-1-9-4-7-7-6-15"/><path fill="#90d0f1" d="M121 455h107q1 8-5 15-5 5-12 5h-74v-20z"/><path fill="#c1edfa" d="M46 168c1-8 5-18 14-20h77v20z"/><path fill="#90d0f1" d="M129 148h72c8 0 16-1 21 5q6 6 6 14h-29l-41 1h-21v-20z"/><path fill="#c1edfa" d="M250 297h77v16c-7 0-38-1-41 1l-1 13h-15v-14h-20z"/><path fill="#fbfefe" d="M250 297h77v8h-77z"/><path fill="#c1edfa" d="M368 34h12v52h-12z"/><path fill="#fbfefe" d="M368 34h12v26l-12-1z"/><path fill="#c1edfa" d="M311 141h15v25h-15zm71 72 10 1 13-1v16h-23z"/><linearGradient id="i" x1="3545.9" x2="3549.4" y1="-1587" y2="-1521.9" gradientTransform="matrix(.25 0 0 -.25 -527 -84)" gradientUnits="userSpaceOnUse"><stop offset="0" style="stop-color:#a4d7ea"/><stop offset="1" style="stop-color:#dbfcfe"/></linearGradient><path d="m370 297 1 16h-22l-1-16z" style="fill:url(#i)"/><path fill="#fbfefe" d="M339 485h61v4h-61z"/><path fill="#90d0f1" d="M419 416h5v37h-1l-6-1 1-36z"/><path fill="#fbfefe" d="M110 132h29v8h-29z"/><path fill="#90d0f1" d="M315 416h6v36h-6z"/><linearGradient id="j" x1="3078.4" x2="3049.6" y1="-1216.9" y2="-1214.6" gradientTransform="matrix(.25 0 0 -.25 -527 -84)" gradientUnits="userSpaceOnUse"><stop offset="0" style="stop-color:#c2e8fb"/><stop offset="1" style="stop-color:#d8fdfd"/></linearGradient><path d="m238 202 3 1 1 35h-6v-35z" style="fill:url(#j)"/><linearGradient id="k" x1="3588.7" x2="3583.1" y1="-2196.2" y2="-2246.4" gradientTransform="matrix(.25 0 0 -.25 -527 -84)" gradientUnits="userSpaceOnUse"><stop offset="0" style="stop-color:#c3f3f6"/><stop offset="1" style="stop-color:#ade7ff"/></linearGradient><path d="m390 467 1 10-44-1v-8q7 4 16 5c12 2 18 1 27-6" style="fill:url(#k)"/><path fill="#c1edfa" d="M237 286h3l1 1v36h-5v-35zM135 132h31v8h-28l1-1v-7zm235 76q3 0 4 2v15l-1 10h-3l-1-24zm-53-80h13v1l-1 4h-7l-15-1q-1-3 4-4zm-10 46h22v5l-22-1zm28 117 4 1v26l-4-1zm48 0h1v26l-3 1-1-1c-1-2 0-21 1-24zm31-83h3v26h-3c-1-3-2-24 0-26"/><path fill="#90d0f1" d="M406 420h4l-1 29-3-1 1-2c1-5 0-21-1-26m-77 0h3v28l-3-1zm-132 63h9v6h-10zm-128 0h10v6h-1l-10-1z"/><path fill="#cce3ef" d="M360 286q5 2 0 5-5-3 0-5m33-84q5 1 0 5c-3 1-2-4 0-5m-58-52q4 2 2 6c-4 0-2-3-2-6"/><path fill="#1c4870" d="m370 202 1 1-3 2h-2q1-3 4-3"/><path d="M417 202q4 1 3 5-3-1-3-5" style="fill:#457a95"/></svg>