<svg xmlns="http://www.w3.org/2000/svg" viewBox="-64 -64 640 640"><path fill="#5290ba" d="M506 288H304V122c-4 4-3 4-8 7q-18 8-40 7-21 1-40-7c-5-2-5-3-8-7v166H7q-5 0-7 5v218l1 1h509v-1h1l1-2V293q-2-5-6-5"/><path fill="#fefefe" d="M216 129q19 8 40 7v192c-12 0-29-1-40-8z"/><path fill="#ddf7fd" d="M296 129v191c-11 6-27 8-40 8V136q22 1 40-7"/><path fill="#ddf7fd" d="M304 296h200v208H8V296h200v26q-8 5-11 14l-7 16-24 47q-8 14-5 28c5 14 18 24 30 30 34 17 77 19 113 7 17-5 36-15 44-31 7-12 4-22-1-34l-26-50-7-14q-2-8-10-13z"/><path fill="#fefefe" d="M8 296h200v26q-8 5-11 14l-7 16-24 47H8zm296 0h200v103H378l-31 1-26-51-7-14q-2-8-10-13zm-48 56c14 0 41-2 52-12l9 18 16 33c3 5 9 16 10 22 5 19-16 34-31 40a139 139 0 0 1-62 11c-24 0-70-12-80-37q-3-7-1-15c1-5 8-16 11-22l16-33 8-17h1c11 10 36 12 51 12"/><path fill="#ddf7fd" d="M256 352c14 0 41-2 52-12l9 18 16 33c3 5 9 16 10 22 5 19-16 34-31 40a139 139 0 0 1-62 11h6v-40q8-1 8-8-1-9-8-8v-8q6 1 10 4 5 4 6 10 0 7-4 13l6 5q4-6 6-13 1-10-5-18-7-9-19-9z"/><path fill="#5290ba" d="M256 392q11 1 18 9t6 18q-1 7-6 13l-6-5a16 16 0 0 0-12-27q-5 0-10 3-5 5-6 11-1 7 4 13l-6 5-3-4a24 24 0 0 1 21-36"/><path fill="#5290ba" d="M256 408q7 1 8 8 0 9-8 8c-8-1-8-4-8-8s4-8 8-8"/><path fill="#ddf7fd" d="m213 328 6 2 8 3c18 5 54 5 71-5q5 1 6 4l-5 4c-19 11-75 12-91-4z"/><path d="M204 340q-4-2-4-6h1v2zm0-18 4 5q-3-2-4-5m97 0-5 5 3-3 1-2zm6 12-4 4 3-5" style="fill:#76abd2"/><path fill="#5290ba" d="M255 0h3l9 8 12 9 35 28 14 10 8 7c1 6-11 11-16 11l-16 4q-33 5-66 3l-31-3c-9-2-22-4-30-11-4-4 3-8 6-10l16-12 32-26z"/><path fill="#ddf7fd" d="m188 63 50-38 11-9 7-6 68 53c-18 7-48 9-68 9-21 0-48-2-68-9"/><path fill="#fefefe" d="m188 63 50-38 11-9 7-6v62c-21 0-48-2-68-9"/><path d="M252 112c12 0 33 1 44 8q-17 9-35 8c-11 1-27-1-37-4l-7-4q17-8 35-8" style="fill:#313131"/><path fill="#0b0b0b" d="M213 120q5-3 2-9"/><path fill="#0b0b0b" d="M213 120h-2l-2-2h-1v4c3 4 3 4 8 7q19 8 40 7 22 1 40-7c5-3 5-2 8-7v-4l-4 2c-5-1-3-6-3-9-8-6-30-7-39-7h-15c-8 1-21 3-28 7l-27-42-11-3 31 52 2 3"/><path fill="#0b0b0b" d="m335 66-32 54-7 2v-10l31-41"/></svg>