<svg xmlns="http://www.w3.org/2000/svg" viewBox="-48 -48 580 580"><path fill="#5290bb" d="M10 26c0-8 6-16 15-16h319c8 0 18-2 24 4 5 5 4 12 5 18 1 12-2 25-1 37 2 13 4 35-15 35h-6v58h21l15 1v28h-7v9l2 1 22 3q28 7 50 25l6 5q11 11 14 25v160q-5 13-15 23 1 13-8 24c-10 10-29 11-39 1l-12 3-10 2c-20 3-46 3-67-1l-9-2-10-2q-9 7-19 7c-13 0-26-11-28-24v-8l-4-4q-6-7-10-16-2-12-1-24V272q-1-10 1-18 5-14 15-22l6-5V104h-30v247q-2 10-10 18-10 11-26 11c-16 0-27 2-40-11q-8-9-10-21V104h-28l-2 1v1l1 9v72l-1 11v143q2 16-10 28c-12 12-23 11-38 11q-16 1-28-11-8-8-10-20V104h-5q-12 1-17-11z"/><path fill="#fefefe" d="m17 38 7 2h167v34l1 24H24c-8-1-7-8-7-14z"/><path fill="#16a3fc" d="m101 49 1 6c3 6 9 10 9 17q0 10-10 11-6 0-10-5c-5-8 3-15 7-22zm-29 0 1 6c3 6 9 10 9 17q0 10-10 11c-9 0-14-8-10-16l8-13zm-29 0 2 7c2 5 8 9 9 16q-1 10-11 11-15-1-10-16l7-11z"/><path fill="#ddf7fd" d="M191 39h168l6-2v53q0 6-7 7H187h4z"/><path fill="#5290bb" d="M328 46q8 0 14 4a22 22 0 0 1 3 32l-5-5q3-2 3-6 1-6-2-11-4-6-10-6-6-1-11 2-5 4-5 10-1 7 3 12l-6 4q-4-4-5-12 0-9 5-16 7-7 16-8"/><path fill="#5290bb" d="M328 61q6-1 8 6c2 7-2 7-6 8q-6 1-8-6-1-6 6-8"/><path fill="#ddf7fd" d="M467 307v36c0 6 1 17-1 22q-2 6-6 10c-23 22-79 27-109 26h-3 9v-51l1-14c29 0 63-5 91-17q10-4 18-12"/><path fill="#fefefe" d="M249 308c26 20 76 28 108 28v65h-22c-27-3-58-8-79-26-9-8-7-18-7-29z"/><path fill="#5290bb" d="m257 443 7 5v-1q15 11 32 17l8 3q-9 7-19 7c-13 0-26-11-28-24z"/><path fill="#ddf7fd" d="M264 447q15 11 32 17l-5 2q-9 2-16-2-9-5-11-17"/><path fill="#16a3fc" d="m296 464 10 2-2 1zm-52-162v-1l5 7v1zm13 140 7 5zM12 31l5 6-5-5zm230 265 1 4-1 1-1-3zM10 26l2 4v2q-2-1-2-3z"/><path fill="#ddf7fd" d="m351 329-19-1c-24-3-52-9-73-22-3-2-9-7-10-11v-17l1-22 4-9c14-19 39-30 61-36l21-4q-2 8 3 13 8 7 18 7 11 1 19-6 5-6 4-14l21 4c22 6 46 16 60 35q5 6 6 14l-1 35c0 4-6 9-9 11a199 199 0 0 1-106 23"/><path fill="#fefefe" d="m351 329-19-1c-24-3-52-9-73-22-3-2-9-7-10-11v-17l1-22 4-9c14-19 39-30 61-36l21-4q-2 8 3 13 8 7 18 7v102zM75 257h37v78l-1 15q-2 8-8 14c-9 9-18 9-30 8h-3a29 29 0 0 1-30-23l-1-14v-78z"/><path fill="#ddf7fd" d="M75 257h37v78l-1 15q-2 8-8 14c-9 9-18 9-30 8h-2 5l-1-14z"/><path fill="#fefefe" d="M192 257h36v78l-1 14q-2 9-8 15c-9 9-18 9-29 9h-5a29 29 0 0 1-29-23l-1-15v-78z"/><path fill="#ddf7fd" d="M192 257h36v78l-1 14q-2 9-8 15c-9 9-18 9-29 9h-4l6-1-1-12v-75zm275 121v38c0 9-10 19-17 23-26 21-62 28-96 28l-4-1h8l-1-12v-45l33-2c23-3 59-10 76-28z"/><path fill="#fefefe" d="m249 378 10 8c27 17 67 22 98 23v57l-7 1-15-1c-26-4-54-12-73-30q-7-6-12-15l-1-19zm-94-201h73v72h-73z"/><path fill="#313031" d="M165 213h52q7 3 1 7h-53q-5-3 0-7m0 15h46q5-1 9 1 1 3-2 6h-53q-6-4 0-7m14-29h24q5 4 0 7h-19q-4 0-7-2 0-4 2-5"/><path fill="#fefefe" d="M39 177h73v72H39z"/><path fill="#313031" d="M49 213h53q5 4 0 7H49q-5-4 0-7m0 15h52q6 1 1 7H49q-5-4 0-7m14-29h24q5 3 0 7H64l-3-2q-1-3 2-5"/><path fill="#ddf7fd" d="m23 18 10-1h323q7 0 9 7l-1 5c-3 4-12 3-17 3H31c-5 0-12 1-14-6l1-5q2-3 5-3"/><path fill="#fefefe" d="M31 32c-5 0-12 1-14-6l1-5 5-4h169l-1 14-113 1zm160 72h37v66l-38-1h-35v-65z"/><path fill="#ddf7fd" d="M191 104h37v66l-38-1h1z"/><path fill="#fefefe" d="M75 104h37v66H39v-66z"/><path fill="#ddf7fd" d="M75 104h37v66H73l2-1z"/><path fill="#fefefe" d="M307 104h37v58h-15v8h-58v-66z"/><path fill="#ddf7fd" d="M307 104h37v58h-15v8h-24l2-1z"/><path fill="#fefefe" d="M271 177h58v14h7v9l-14 2v-1l-1 1-12 3-4 1c-1 1-13 4-15 6l-4 1-8 4-7 5z"/><path fill="#313031" d="M305 206q-6 1-11-2-3-3 2-5h23l3 2-1 1-12 3zm-27 11q2-5 8-4z"/><path fill="#ddf7fd" d="M344 191h29v23q-6 5-14 5h-1c-3 0-13-1-14-5z"/><path fill="#fefefe" d="m344 191 14 1v27c-3 0-13-1-14-5l-1-8z"/><path fill="#ddf7fd" d="m452 447-2 8q-4 8-13 11t-18-2c9-2 26-11 33-17m-94-277h7v14h-14v-14z"/><path fill="#fefefe" d="M351 170h7v14h-7z"/><path fill="#ddf7fd" d="M373 170h7v14h-7z"/><path fill="#fefefe" d="M336 170h8v14h-8z"/><path fill="#16a3fc" d="m271 222-6 4c0-2 5-4 6-5zm181 225 5-4z"/></svg>