<svg xmlns="http://www.w3.org/2000/svg" viewBox="-184 -184 2500 2500"><path fill="#090909" d="m1410 470 2 4c4 2 22 0 28 0l63 1v60c0 10-1 62 1 68v978l-1 46v63h-31v-62h-30l-2-1-29 1v-13 1-4q-2 6-2 14l-1-18 1-80V599h2l-1-32z"/><path fill="#090909" d="m1410 470 2 4c4 2 22 0 28 0l63 1v60c0 10-1 62 1 68v978l-1 46v63h-31v-62l1-15c1-19-2-41 0-60v-7c-2-12 0-29 0-42l-1-175 1-527v-81c0-9-2-32 0-39l-1-9 1-26-1-48-2-1h-30c-8 0-22-1-29 1l-1-32z"/><path fill="#575555" d="m1410 470 2 4c4 2 22 0 28 0l63 1v60c0 10-1 62 1 68v978l-1 46v63h-31v-62h28V599h-28l-2-1h-30c-8 0-22-1-29 1l-1-32z"/><path fill="#7a7a79" d="m1410 470 2 4c4 2 22 0 28 0l63 1v60c-4 0-25 2-29 1-3-2-27-1-33-1-7 2-22 1-30 1v31c-2-13-1-48 0-62z"/><path fill="#575555" d="M1411 536c8 0 23 1 31-1-1 11-2 55 1 63h-3c-8 0-22-1-29 1z"/><path fill="#686666" d="M1442 535c5 0 29-1 33 1l-4 1v60h-28c-3-7-2-51-1-62"/><path fill="#313131" d="M1473 682c-2 7 0 29 0 38v82l-1 527 1 175c0 13-2 30 0 42v7c-1 19 2 40 0 60l-1 15h-30l-1-1c-1-14-1-55 1-68q-2-10 0-19c-2-11-1-42-1-54V719c0-8-1-26 1-34l6 6q17 7 25-9"/><path fill="#a9a7a8" d="M1473 1553c-2 11-15 19-24 13v-3c3-5 17-22 22-21l2 3zm-31-13q8-7 17-7l2 1c2 10-12 21-19 25q-2-9 0-19"/><path fill="#313131" d="m1471 597 2 2v83q-8 17-25 9l-7-6v-17c-4-20 3-50-1-70l3-1z"/><path fill="#a9a7a8" d="M1441 668c8-9 12-11 23-5l7 5 2 5v9q-8 17-25 9l-7-6z"/><path fill="#a9a7a8" d="M1441 668c8-9 12-11 23-5-2 3-19 19-23 20z"/><path fill="#575555" d="M1464 663q4 2 7 6l-23 22-7-6v-1c4-2 22-18 23-21"/><path fill="#090909" d="M1035 536c9 2 30-1 41-1h22l-1 32v32c2 15 1 40 1 55v973c-2 4-1 27-1 33v30h-2l-24 1c-20 0-45 1-66-1q2-16 0-31l-1-32c-2-15-1-51-1-68v-132l1-425V654c0-17-2-38 0-55v-31c2-6 1-26 1-33z"/><path fill="#090909" d="M1005 535h30v41l1 22-1 1-1 33 1 37v959l1 1h31v61h28l-24 1q-33 1-66-1 3-15-1-31v-32c-2-15-1-51-1-68v-132l1-425V654c0-17-2-38 0-55v-31z"/><path fill="#575555" d="M1005 535h30v41l1 22-1 1h-30v1029h30v1h32v61l28 1h-90q2-17-1-32l-1-32v-200l1-425V654c0-17-2-38-1-55l1-31z"/><path fill="#686666" d="M1036 1629h31v61l28 1h-90l30-1c0-24-1-36 1-61"/><path fill="#313131" d="M1035 669c8-8 12-10 23-7q3 5 7 6l1 1c1 7 2 7 1 13l-1 2v1l1 81v505l1 189-1 50-1 30c2 9 2 11 0 19 2 15-1 62 2 68l-1 2h-31l-1-1z"/><path fill="#a9a7a8" d="M1035 669c8-8 12-10 23-7q3 5 7 6l1 1c1 7 2 7 1 13l-1 2v1c-9 9-13 10-25 6q-2-4-6-7z"/><path fill="#a9a7a8" d="M1035 669c8-8 12-10 23-7-4 6-17 20-23 22z"/><path fill="#575555" d="M1058 662q4 5 7 6l-24 23q-2-4-6-7v-1c7-1 20-15 23-21"/><path fill="#a9a7a8" d="M1066 1559c-5 5-18 14-22 4 2-7 15-21 22-23 2 9 2 11 0 19m-31-17c5-4 15-14 21-7 1 10-12 23-20 23z"/><path fill="#575555" d="M1035 536c9 2 30-1 41-1h22l-1 32v32c2 15 1 40 1 55v973c-2 4-1 27-1 33v30h-30v-61l1-2c9-1 22 2 28-4V599h-29v-1h-31l-1-22z"/><path fill="#686666" d="M1035 536c9 2 30-1 41-1l-8 4c-3 11-1 45-1 59h-31l-1-22z"/><path fill="#313131" d="M1036 598h31v1c-2 23 3 48-1 71l-1-2q-4-2-7-6c-11-3-15-1-23 7l-1-36 1-34z"/><path fill="#fefefe" d="M1156 381c3-2 30-1 34-1h168l-10 2v29c14-2 46-1 61-1 2 16 1 44 1 60l1 35c-1 14-2 49 0 62h-314l1-32V410c15 0 48-1 61 1 0-8 3-25 0-30z"/><path fill="#ccf3fc" d="M1098 443c0 9-2 57 1 62 16 1 37-1 54-1h169l84 1h3c0 14-1 49 1 62h-314l1-32v-92"/><path fill="#2392be" d="M1156 381c3-2 30-1 34-1h168l-10 2v29c14-2 46-1 61-1 2 16 1 44 1 60v-27h-312v-33c15 0 48-1 61 1 0-8 3-25 0-30z"/><path fill="#ccf3fc" d="M1191 380h126v32h-126z"/><path fill="#2392be" d="M1098 1784h312l-1 32h-31l1 62h-31c0 26 1 62-4 87q-4 9-9 15c-23 27-53 23-84 23-27 0-55 1-75-19-18-17-16-47-16-70l-1-35h-30v-63h-31z"/><path fill="#ccf3fc" d="M1191 1878h126c0 90 9 97-88 95l-10-1c-38-6-29-64-28-94"/><path fill="#fefefe" d="m1191 1878 63 1v92l-35 1c-38-6-29-64-28-94"/><path fill="#ccf3fc" d="M1254 1815h31v32h-63v-32z"/><path fill="#fefefe" d="M1222 1815h32l-1 30-14 2h-16z"/><path fill="#ccf3fc" d="M1316 1815h32v32h-32z"/><path fill="#fefefe" d="M1160 1815h31v32h-31z"/><path fill="#2392be" d="M1097 567h314v32h-1c-4-2-54 0-62 0v30h31l-1 94-59 1h-190v-95h30v-30h-62z"/><path fill="#ccf3fc" d="M1191 598h126v32h-126zm33 63c11-2 48 0 61 0v32l-63-1q-1-15 2-31"/><path fill="#fefefe" d="m1224 661 30 1-1 29-31 1z"/><path fill="#ccf3fc" d="M1316 661h32v31h-32z"/><path fill="#fefefe" d="M1160 661h31v31h-31z"/><path fill="#ccf3fc" d="M1098 1660h313c-2 17 0 44 0 62l-1 35v27h-312v-31l-1-1v-92z"/><path fill="#fefefe" d="M1098 1660h313c-2 17 0 44 0 62-45 1-101-4-145-1l-167 1c-2-11-1-49-1-62"/><path fill="#a90100" d="M1130 1565h29c4-8-1-49 2-60 5-3 23-2 29-1h127l30-1 1 62h30c0 15 2 38 1 51l2 11c5 0 25 2 28 1 3 4 1 25 2 32h-314c0-6-1-29 1-33h30c0-10-1-55 2-62"/><path fill="#2392be" d="M1128 1627c0-10-1-55 2-62 2 10 1 50 1 63h30l33 1h120l34-1h18c11 1 12-3 13-12 1 3 1 9 3 10 4 1 25 3 27 2 3 4 1 25 2 32h-314c0-6-1-29 1-33z"/><path fill="#ff5451" d="M1160 1597h94v32h-60l-33-1z"/><path fill="red" d="M1254 1597h94v31l-34 1h-60z"/><path fill="#ff5451" d="M1191 1534h63v32h-64z"/><path fill="red" d="M1254 1534h63v32h-63z"/><path fill="#2392be" d="m1190 1504 1-75c0-16-1-53 2-67q5-17 17-29c40-38 99-12 107 39 2 12-1 26 0 37v95z"/><path fill="#ccf3fc" d="M1249 1347c15 0 34 6 35 24 3 43 3 90 1 133h-31l-1-152q0-4-4-5"/><path fill="#fefefe" d="M1249 1347q4 1 4 5l1 152h-32c0-23-3-127 4-143 4-7 15-11 23-14"/><path fill="#2392be" d="m224 1284 51 1h141c10 0 52-2 58 0v24l1 101c-7 0-26-1-32 2v78l-1 104 3 2q17 15 30 32c3 4 17 30 19 30 22 1 50 2 72 1 0-8 0-25 2-31q23-2 47 1l64-2h42l2-7v-55h31c0-10-1-52 1-60 6-3 23-2 30-1h126c7-1 24-2 30 1l2 60h30l1 63 30-1 1 32c-2 19-1 45-1 64v92c-7 3-22 2-30 1v62h-31c0 31 5 82-15 105a72 72 0 0 1-53 21c-29-1-77 5-100-16-29-24-20-75-20-110l-32 1v-63H567l1-31h-55c-29 0-22 9-37 29-17 24-38 39-64 53v41c16 0 50 3 63 1v94l-63 1v61H287v-61c-6-4-51-1-62-1v-94c14 2 47 1 62 1v-44c-29-14-49-30-67-57l-15-24h-44v30l-93 1v-126c0-13-1-50 1-60 3-1 83-2 91-1 5 4-1 24 4 29 7 2 31 1 40 1l14-24q16-22 38-40v-185l-31 1c-2-7-1-112-1-127"/><path fill="#ccf3fc" d="M598 1659h407c-2 18-1 44-1 63v63H598z"/><path fill="#fefefe" d="M598 1659h407c-2 18-1 44-1 63l-404-1-1-24z"/><path fill="#a90100" d="M911 1504c7-1 24-2 30 1l2 60h30l1 63c-4 2-111 1-124 1h-96c-11-1-19 2-29-1-3-3-2-3-2-8v-55h31c0-10-1-53 1-60 6-3 23-3 30-2 8 2 23 1 31 1z"/><path fill="#ff5451" d="M754 1597h95c0 6-1 27 1 31v1h-96z"/><path fill="red" d="M849 1597h93l1 31h-93c-2-4-1-25-1-31"/><path fill="#ff5451" d="M785 1534h64v32h-64z"/><path fill="red" d="M849 1534h62c1 8 2 25-2 31-9 2-49 1-60 1z"/><path fill="#ccf3fc" d="M347 1410h65c-2 21 1 163-2 169-15-7-49-15-65-12l1-1c3-3 3-145 1-156"/><path fill="#fefefe" d="M286 1410h61c2 11 2 153-1 156l-1 1q-30 0-59 13z"/><path fill="#4cbff9" d="M412 1410v167c9 4 27 17 30 17l2 2c-9 1-29-11-34-18 3-5 0-147 2-168m-126 168v-168l1 34-1 136-30 18c10-13 14-14 30-20"/><path fill="#fefefe" d="M336 1597c13-5 49 4 63 10a125 125 0 0 1 64 167 125 125 0 1 1-127-177"/><path fill="#ccf3fc" d="M336 1597c13-5 49 4 63 10a125 125 0 0 1 64 167 125 125 0 0 1-115 73c2-8-1-77 0-91 1-1-3-3-4-3 21 2 38-14 36-35q-2-13-13-22-11-6-23-5l2-2c3-12 2-74 2-91z"/><path fill="#090909" d="m318 1712-34-43q-8-12-17-22v-7c13-6 59 49 77 51q13-1 23 5 11 8 13 22c3 21-15 37-36 35-23-6-26-18-26-41"/><path fill="#ccf3fc" d="M785 1878h126v28c0 16 4 45-10 57-13 13-57 9-76 9h-4c-40-3-36-28-36-60z"/><path fill="#fefefe" d="M785 1878c20 1 45-1 64 1 0 11 1 88-2 92l-25 1c-41-3-37-28-37-60z"/><path fill="#ccf3fc" d="m254 1940 63-1 126 1v32H254z"/><path fill="#fefefe" d="m254 1940 36 1 59-1v31h-62l-33 1z"/><path fill="#ccf3fc" d="M501 1691h67c0 9 2 58-2 62-9 0-56 1-62-1q-2-1-2-5c2-20 3-35-1-55zm-402-32h31c2 9 1 33 1 43v83H99z"/><path fill="#fefefe" d="M99 1659h31v63h-14c-18 1-14-4-17-16z"/><path fill="#ccf3fc" d="M317 1316h64v63c-12 0-55 1-64-1z"/><path fill="#fefefe" d="m317 1316 32 1v60l-32 1z"/><path fill="#ccf3fc" d="M161 1691h35c1 4-1 14-1 18q-3 23 2 44h-36zm156 218v-36l21 4c17 0 26 0 43-2v35c-10 0-56 1-64-1"/><path fill="#fefefe" d="M317 1909v-36l21 4 11 1v31zm-63-593h33v63h-33z"/><path fill="#ccf3fc" d="M317 2003c13-2 49-1 64-1v32h-64z"/><path fill="#fefefe" d="M317 2003h31v31h-31zm532-188h31v32h-64v-32z"/><path fill="#ccf3fc" d="M849 1815h31v32h-38l5-2c3-5 2-23 2-30m-438-499h31l1 63h-31zm499 499h32v32h-32z"/><path fill="#fefefe" d="M754 1815h32v32h-32z"/><path fill="#2392be" d="M225 68h250v125c-9 0-22-1-30 2-3 2-2 166-2 184l16 14q22 21 34 49h61c12 0 12-1 12-11 0-5 0-17 3-21l38 1h147v-30l-4-1h198l-4 1c-2 5-1 22-2 30 17 0 46-2 62 0v188h-61v30h31l-1 94-250 1v-95c8 0 24 3 30-3 2-7 1-20 1-27l-110-1c-15 0-65 2-76-1-2-8 2-21-1-29-7-2-64 0-74 0-18 40-43 61-81 81v42h63l-1 43c-1 14 1 37-1 51l-62 2 1 61-125 1v-64l-63 2v-96h62v-42c-44-21-58-40-82-81h-42v30l-94 1V411l93 1v30h44c14-25 27-46 52-63l-1-132c0-11 1-44-2-53-5-3-22-2-29-2z"/><path fill="#ccf3fc" d="M598 442h406v126H598z"/><path fill="#fefefe" d="M598 442h406v63l-37-1H600z"/><path fill="#ccf3fc" d="M785 380h126v31l-126 1z"/><path fill="#fefefe" d="M338 381c23-5 58 5 77 18a125 125 0 0 1 40 174 125 125 0 0 1-231-63q-1-52 34-91c19-21 51-37 80-38"/><path fill="#ccf3fc" d="M338 381c23-5 58 5 77 18a125 125 0 0 1 40 174 125 125 0 0 1-118 57l10-3c2-5 3-81 3-90 25-2 39-28 25-49-7-11-15-13-27-15v-59c0-7 1-25-1-30q-3-4-9-3"/><path fill="#090909" d="M319 496c-9-11-52-61-52-71l1-1c16-1 51 40 67 47 6 3 6 4 13 2 12 2 20 4 27 15 14 21 0 47-25 49-28-3-31-17-31-41"/><path fill="#ccf3fc" d="M412 193v168q12 3 21 11l1 2c-7 2-19-8-25-12-21-11-49-12-72-12-24 5-24 2-51 13V193l42-1z"/><path fill="#fefefe" d="M286 193c14 2 47 1 63 1v155l-12 1c-24 6-24 3-51 13z"/><path fill="#4cbff9" d="M412 193v168q12 3 21 11l1 2c-7 2-19-8-25-12 4-5 2-82 2-97z"/><path fill="#ccf3fc" d="M254 723c14-2 50-1 65-1h124v33c-32 0-73 2-104 0h-85z"/><path fill="#fefefe" d="M254 723c23 2 71 0 95 0l-1 30q-4 3-9 2h-85z"/><path fill="#ccf3fc" d="M501 473h67l-1 62-2 1c-8 0-61 1-63-1-1-6 2-17 2-23zM99 442h31c2 10 1 33 1 44v82H99z"/><path fill="#fefefe" d="M99 442h31v63c-8 0-24 2-30-2l-1-6z"/><path fill="#ccf3fc" d="M785 598h126v32H785zM349 99h32v63h-64V99z"/><path fill="#fefefe" d="M317 99h32v62h-31c0-12 1-53-1-62"/><path fill="#ccf3fc" d="M349 660c7 0 23-2 29-1 5 4 3 26 3 33h-64c0-8-2-26 1-32 6-4 24 0 31 0"/><path fill="#fefefe" d="M317 692c0-8-2-26 2-32 5-4 23 0 30 0 2 5 1 25 1 31z"/><path fill="#ccf3fc" d="M161 473h34c0 16-3 50 2 63h-36z"/><path fill="#fefefe" d="M254 99h33v63h-33z"/><path fill="#ccf3fc" d="M349 785h32v32h-64v-32z"/><path fill="#fefefe" d="M317 785h32l-1 32h-31z"/><path fill="#ccf3fc" d="M817 661c13-2 48 0 63 0v32l-65-1c3-7 2-23 2-31"/><path fill="#fefefe" d="M817 661h1c7 1 27 0 30 2 2 4 1 22 1 28l-34 1c3-7 2-23 2-31"/><path fill="#ccf3fc" d="M411 99h31l1 63h-32zm499 562h32v31h-32z"/><path fill="#fefefe" d="M754 661h32v31h-32z"/><path fill="#4cbff9" d="M200 450c4 3-1 14-2 19l-2-2q0-9 4-17"/><path fill="#2392be" d="M1596 1503c5 2 25 1 32 1h63c9 0 23 1 31-1 7 0 24-1 30 2 2 15 2 45 2 60h31c0 11-1 55 2 62 28-1 51 1 78 2l106-2v-31h94v251h-94v-31h-186v62h-31v39c0 23 1 50-17 68-25 24-68 18-99 18-20 1-43-6-57-20-18-20-16-41-16-66v-38h-30c0-8 1-61-1-63h-29l-1-31v-33c-2-16-1-44-1-61v-32l1-32h30l2-62h29v-62z"/><path fill="#fefefe" d="M1504 1659h468l-1 63h-467z"/><path fill="#ccf3fc" d="M1503 1659h1v63h467l1-63 1 43-1 83h-468v-33c-2-16-1-44-1-61z"/><path fill="#a90100" d="M1596 1503c5 2 25 1 32 1h63c9 0 23 1 31-1 7 0 24-1 30 2 2 15 2 45 2 60h31c0 11-1 55 2 62l-33 1h-218c0-18 1-46-1-63h30v-62z"/><path fill="#ff5451" d="M1565 1597h95v31h-95z"/><path fill="red" d="M1660 1597h72c5 0 18-1 21 2q2 14 1 29h-94z"/><path fill="#ff5451" d="M1597 1534h63v32h-63z"/><path fill="red" d="M1660 1534h62v32h-62z"/><path fill="#ccf3fc" d="M1597 1878h125v33c4 48-6 64-57 61q-14 2-29-1c-46-1-41-30-39-65z"/><path fill="#fefefe" d="M1597 1878h62v93l-23 1c-46-2-41-31-39-66z"/><path fill="#ccf3fc" d="M1659 1815h32v32h-63v-32z"/><path fill="#fefefe" d="M1628 1815h31v32h-31z"/><path fill="#ccf3fc" d="M2003 1691h31v62h-32c0-14-1-51 1-62"/><path fill="#fefefe" d="M2003 1691h31v31h-31zm-438 124h33v32h-33z"/><path fill="#ccf3fc" d="M2002 1784h32v32h-32z"/><path fill="#fefefe" d="M2002 1628h32v32h-32z"/><path fill="#ccf3fc" d="M1721 1815h32v32h-32z"/><path fill="#2392be" d="M1566 381h186v31h69l151-1v-30h93v249h-93v-32h-170l-48 1v30c9 0 23-1 31 1v93l-250 1v-95l30-1v-29h-61v4l-1-68v-60h1v-63l60-1c3-3 2-25 2-30"/><path fill="#ccf3fc" d="M1504 442h468v126h-468v36c-2-7-1-59-1-69v-60h1z"/><path fill="#fefefe" d="M1504 442h468c-2 15-1 46-1 62l-467 1z"/><path fill="#ccf3fc" d="M1597 381h125v31h-125zm0 217h125v32h-125zm31 63c14-2 48 0 63 0v32l-63-1z"/><path fill="#fefefe" d="M1628 692v-31l32 1v29z"/><path fill="#ccf3fc" d="M2003 473h31v63h-32c0-12-1-53 1-63"/><path fill="#fefefe" d="M2003 473h31v30c-5 2-23 4-28 1-6-6-2-18-3-29zm-438 188h33v31h-33z"/><path fill="#ccf3fc" d="M2002 567h32v32h-32z"/><path fill="#fefefe" d="M2002 411h32v31h-32z"/><path fill="#ccf3fc" d="M1722 661h31v31h-32zm-187-375v-59c-1-40-5-71 25-101 31-32 74-28 114-28 31 0 60 4 83 27 35 33 29 84 29 129v127h-251z"/><path fill="#0060ac" d="m1753 287 32-1v61l1 34h-251v-95h30c7 2 30 1 38 1z"/><path fill="#2392be" d="M1565 317h188v32h-188z"/><path fill="#4cbff9" d="M1565 317c23 2 70 1 95 0v32h-95z"/><path fill="#2392be" d="M1535 286v-59c-1-40-5-71 25-101 31-32 74-28 114-28 31 0 60 4 83 27 35 33 29 84 29 129v127l-1-34v-61l-32 1q2-52-1-103c-3-25-22-46-46-52q-22-3-46-2c-31 0-54-4-77 19q-10 11-15 25c-5 18-3 89-3 113z"/><path fill="#fefefe" d="M1565 287c0-24-2-95 3-113q5-15 15-25c23-23 46-19 77-19q-2 67-1 133l1 23h-61z"/><path fill="#ccf3fc" d="M723 381V204c0-30 4-55 26-77 22-23 50-29 81-29 41 0 84-4 116 28 30 29 28 61 28 100v155h-26c-4-2-32-1-37-1H785c-5 0-32-1-35 1z"/><path fill="#0060ac" d="M724 286h250v95h-26c-3-2-32-1-37-1H750c-7 2-19 1-27 1l1-34z"/><path fill="#2392be" d="M754 317c7-2 166 0 189 0v32H754z"/><path fill="#4cbff9" d="M754 317h95v32h-95z"/><path fill="#2392be" d="M723 381V204c0-30 4-55 26-77 22-23 50-29 81-29 41 0 84-4 116 28 30 29 28 61 28 100v60h-32c-1-36 4-78-4-113q-5-13-15-24c-20-21-48-19-74-19-28 0-56-3-77 19-20 20-19 52-18 79 0 11-2 48 1 57v1h-31v61z"/><path fill="#fefefe" d="M755 285c-3-10 0-46-1-57-1-27-2-59 18-79 21-22 49-19 77-19q-2 63-1 125l1 30z"/><path fill="#ccf3fc" d="M1129 286v-55c-2-38-3-76 26-105 23-24 56-30 88-28 41 2 79-4 110 29 30 31 27 73 26 114v139h-222l-29 1z"/><path fill="#0060ac" d="M1129 286h31c7 2 32 1 40 1h148c8-1 24-1 31 1v92h-188c-5 0-32-1-34 1h-29z"/><path fill="#2392be" d="M1160 317h188v32h-188z"/><path fill="#4cbff9" d="M1160 317c24 2 69 1 94 1v31h-94z"/><path fill="#2392be" d="M1129 286v-55c-2-38-3-76 26-105 23-24 56-30 88-28 41 2 79-4 110 29 30 31 27 73 26 114v47c-7-2-23-2-31-2q2-39 0-80c-1-24-2-41-20-59-22-21-45-18-73-17-28-1-55-4-76 17-18 18-19 40-19 63v76z"/><path fill="#fefefe" d="M1160 287v-76c0-24 0-46 19-64 21-21 48-17 76-17l-2 23 1 133h-62z"/><path fill="#090909" d="m1411 141-1-5c4-40 58-50 83-23 5 5 10 16 10 22 3 11 3 269 1 277v63h-1l-63-1c-6 0-24 2-28 0l-2-3v-1c0-16 1-44-1-60V201c0-10-1-54 2-60"/><path fill="#313131" d="M1442 168c-7-24 7-53 30-28l1 35-1 12v21l1 202h29V212c0-10-1-70 1-77 3 11 4 268 1 277v63h-1l-62-1c-7 0-25 2-29 0l-2-4c0-16 1-44-1-60V201c0-10-1-54 2-60l1 72v198h29V186q-1-10 1-18"/><path fill="#575555" d="M1503 135c3 11 3 268 1 277v63h-1l-63-1c-6 0-24 2-28 0l-2-4c0-16 1-44-1-60V201c0-10-1-54 2-60v270h92c-2-90 0-185 0-276"/><path fill="#686666" d="M1441 412h31v62h32v1h-1l-63-1z"/><path fill="#a9a7a8" d="M1471 187c-5 4-15 12-21 5 0-8 14-20 20-23q3 1 3 6zm-29-19q6-7 17-9l2 1c3 9-11 21-18 26h-2q-1-10 1-18"/><path fill="#090909" d="M1004 140c2-12 3-20 13-29 21-19 54-16 72 4q7 9 8 20l1 43v296h-1c-5 2-53 0-62 0-7 0-24 2-29-1-2-2-1-25-2-31v-31l-1-29v-53z"/><path fill="#313131" d="m1097 135 1 43v296h-1c-5 2-53 0-62 0v-63h-30l30-1V184q0-9 2-16 10-10 22-5l6 7 1 1q3 8-1 15c3 23 2 70 2 95v92l1 37h28l-1-113 1-51v-78c0-8-1-25 1-33"/><path fill="#575555" d="m1097 135 1 43v296h-1c-5 2-53 0-62 0v-63c6-2 51 0 61 0V168c0-8-1-25 1-33"/><path fill="#686666" d="M1035 411h31v63h31c-5 2-53 0-62 0z"/><path fill="#a9a7a8" d="M1037 168q10-10 22-5l6 7 1 1q2 8-1 15c-8 9-12 11-24 6l-6-6v-2q0-9 2-16"/><path fill="#a9a7a8" d="M1037 168q10-10 22-5c-4 5-19 20-24 21q0-9 2-16"/><path fill="#575555" d="m1059 163 6 7c-3 1-21 19-23 22l-7-6v-2c6-1 20-16 24-21m-55-23c2 10 1 66 1 79v192h30v63c-7 0-24 2-29-1l-2-31v-31l-1-29v-53z"/><path fill="#313131" d="M1037 168c-8-24 6-54 30-28l-1 31-1-1-6-7q-12-5-22 5"/><path fill="#090909" d="M1005 1659q2 15 0 31 33 2 66 1l24-1h2v63l1 31v32c0 17 2 100-1 111l-1 9c3 39-82 59-92-4l-1-100v-18l1-29v-63c0-19-1-45 1-63"/><path fill="#575555" d="M1005 1659q2 15 0 31 33 2 66 1l24-1h2v63l1 31v32c0 17 2 100-1 111l-1-38v-74h-58l-33 1v77l-1 39q-2-50-1-99v-19l1-29v-63c0-19-1-45 1-63"/><path fill="#7a7a79" d="M1005 1659q2 15 0 31 33 2 66 1l24-1h2v62h-92l-1 33v-63c0-19-1-45 1-63"/><path fill="#686666" d="M1097 1752c-9 0-22-2-29 2-3 7-2 49-2 59h-30l-1-61-31-1h92"/><path fill="#313131" d="m1005 1816 33-1h58l1 74v47c-2-7-1-35-1-44v-76h-29c0 21 1 47-1 67 2 8 3 10 0 19l1 5q4 15-5 28c-5 6-15 9-22 2-9-9-3-22-4-33v-2c-2-9-2-11 1-19-4-11 0-50-2-65-4-3-23-1-30-2"/><path fill="#a9a7a8" d="M1066 1902c-5 4-14 12-20 8-3-10 12-23 20-27 2 8 3 11 0 19m-29-19c5-4 15-12 20-5 1 9-14 20-21 24-2-9-2-11 1-19"/><path fill="#2392be" d="m1596 1503 1-81c1-21-3-38 2-60q3-17 16-29c24-25 66-24 90 1 4 5 15 20 16 27 4 47 1 95 1 142-8 2-22 1-31 1h-63c-7 0-27 1-32-1"/><path fill="#ccf3fc" d="M1653 1347c47-3 38 48 38 79v78h-32v-105c0-15 1-34-1-48q-2-4-5-4"/><path fill="#fefefe" d="M1653 1347q3 1 5 4l1 48v105h-31c0-40-5-99 3-140 1-6 15-14 22-17"/><path fill="#2392be" d="M785 1504q2-41 1-80c1-33-8-71 21-94 11-9 19-13 34-14 33-5 63 19 69 52q3 28 1 58v77c-6 2-24 1-31 1z"/><path fill="#fefefe" d="M816 1504c0-22-3-124 4-139 4-10 14-14 22-18q6 0 7 3v88l1 66z"/><path fill="#ccf3fc" d="M842 1347q16-1 28 9c8 6 10 23 10 32v116h-30l-1-66v-88q-1-3-7-3"/><path fill="#090909" d="M1504 1752v63c3 14 2 105-1 119v3q-3 15-16 25c-21 15-57 11-71-12-4-5-7-15-5-21-4-16-2-94-1-114v-59l2-5h92"/><path fill="#575555" d="M1504 1752v63c3 14 2 105-1 119-3-10-1-101-1-119-10-2-79-1-90 0v77l-1 37c-4-16-2-94-2-114l1-32v-27l2-5h92"/><path fill="#686666" d="M1504 1752c-8 0-24-2-30 2-3 8-2 49-2 59h-30v-61l-30-1h92"/><path fill="#313131" d="M1412 1816c11-1 80-2 90 0l-31 1 1 52v15c2 9 2 11-1 19 0 14 8 38-15 37-22-1-17-23-14-38q-3-9 0-18c-5-12 1-61-4-67z"/><path fill="#a9a7a8" d="M1472 1903c-5 4-15 12-21 6-2-9 13-22 21-25 2 9 2 11 0 19m-30-19q6-7 16-9 3 0 3 3c0 9-12 23-19 24q-3-9 0-18"/><path fill="#7a7a79" d="m1409 1626 2-14v4-1 13l30-1 1 1h30v62h31v1c0 17-1 45 1 61h-92l-2 6 1-36c0-18-2-45 0-62-1-7 1-28-2-32z"/><path fill="#686666" d="m1409 1626 2-14v4-1 13l30-1 1 1h30v62h31v1h-92v-31c-1-7 1-28-2-32z"/><path fill="#575555" d="m1409 1626 2-14v4-1 13l30-1 1 1c-3 15 0 46-2 63h-28l-1-31c-1-7 1-28-2-32z"/><path fill="#7a7a79" d="M1004 442c1 6 0 29 2 31 5 3 22 1 29 1 9 0 57 2 62 0h1v62l-22-1c-11 0-32 3-41 1l-30-1-1 33z"/></svg>