<svg xmlns="http://www.w3.org/2000/svg" viewBox="-44 -40 600 600"><path fill="#0a3f60" d="M361 26c4-3 11-11 14-2l1 1 11-1h19l3-4 3 1q3 0 3 3h1l69 1v212l1 17v24l-1 6v37l1 21-1 8 1 11-1 45 1 30v47l-1 13H375q-1 3-6 3l-3-3h-17q-4 5-7 0h-23l-4 4-4-3v-11l-1-13 1-75v-84l-1-17v-13l3-2q1-8-1-15l-2-1h12l5 5 5 1h19q5-1 4-6h8l6 6q7 3 14 2 5-1 6-6l14-17-8-10-7-7q-7-2-15 0-2-4-8-6c-5-1-17 0-22 1l-2 6c-9 2-9 0-16-6l-10-6h-1l-2-2v-2l-2-5V23q7-6 10 2c1 4 8-3 13-1q3-2 5 0h1l1 1z"/><path fill="#c7eefa" d="m416 24 69 1v212l1 17v24l-1 6v37l1 21-1 8 1 11-1 45 1 30v47l-1 13H375V311c9 1 12 0 20-4l10 2c7 1 13-5 18-9l4-1q9 0 13-10l3-6 8-7q4-7 2-17c6-6 10-13 3-21l-4-3c4-14-3-18-14-23q0-6-5-10-6-6-15-5-3-2-3-6V64z"/><path fill="#254e67" d="M446 184c8-1 11 8 3 10q-6 1-8-5 0-5 5-5"/><path fill="#0a3f60" d="M447 313q7-1 8 6l-5 5c-7-2-12-8-3-11m-31 22q6 0 8 5l-5 5c-5 2-11-6-3-10m57-63q5-1 6 2 2 6-3 8h-2l-4-3q-2-5 3-7m-23 92q5-1 6 5-1 4-4 5c-6 0-10-6-2-10M361 26c4-3 11-11 14-2v176l-1 18h-48c-3 1-13 2-14 0l-1-5v-14l-1-30 1-76V23q6-6 9 2c1 4 8-3 13-1q2-2 5 0h1l1 1z"/><path fill="#c7eefa" d="m338 24 1 1 21 1-14 14-28 27V44l14-14zm-18 1c1 4 8-3 13-1q-8 7-14 15zm46 33v23l-47 46v-24l4-4 36-35zm0 29v24l-14 13-24 23-9 9v-22q6-8 13-14l17-17zm0 30v23l-10 10-8 7-29 28v-22l20-20zm0-89v23l-39 37-7 8h-1V73l28-27zm0 119v23l-8 8-9 8-15 15-8 8h-7v-16l17-17zm0 30v22l-9 11h-26zm0 28v5h-6z"/><path fill="#79bde2" d="m375 24 11-1h19v130l1 28c0 8-3 14 4 20 5 5 10 2 15 5 3 1 3 9 6 11 4 4 8 3 12 8 0 5-3 11 1 14q5 2 6 6c0 5-5 8-7 11l1 5q2 5-1 10l-11 7-1 5q-1 8-9 8l-7-1q-1 7-9 9-6 1-13-3l-9 5q-6 1-11-3v-17l-20-1h-41q1-7-1-14l-2-1 12-1 5 5q2 2 5 2h19q5-1 4-7h8l6 5q7 4 14 3 5-2 6-6l14-17-8-10-7-7q-7-2-15 0-2-4-8-7c-5 0-17 0-22 2l-2 6c-9 2-9 0-16-6l-10-7-1 1-2-2v-2h47l15-1 1-18V24"/><path fill="#79bde2" d="M396 221c9-1 9 10 0 12q-9 3-5-7z"/><path fill="#0a3f60" d="m413 215 6 2 1 3-4 5h-3q-7-6 0-10m4 56c6-1 10 6 3 10-6 0-9-7-3-10"/><path fill="#c7eefa" d="M366 449v23c-4 6-14 13-19 19l-4 5h-24l20-20 15-15zm0 29v18l-16 1-1-1q10-8 17-18m0-117v23l-5 5-29 28-13 12v-22l14-14 21-21zm0 29v23l-33 32-14 14v1l1-24c1-3 9-10 12-13l21-20zm0 29v24l-7 7-19 18-21 21v-4l1-20 40-39zm0-88v23l-7 7-9 8-31 30v-3l1-19c3-5 11-12 15-16l20-19zm0-29v22l-14 13-23 23-10 9v-19q1-5 5-8zm-14-12h14q1 2-1 5l-10 10-36 35 1-23 16-16 10-11zm-28 0h17l-13 12-9 9v-21z"/><path fill="#0a3f60" d="M55 312q-11 0-20-7-8-8-8-20v-49q-1-15 1-31l5-9q9-8 21-7h89c4 0 14-1 17 2 2 1 1 9 1 11h18c15 0 17 1 18 16 6 0 26-1 31 1l12 9 9 7h7v-7q9-2 18-1c9-1 11 3 17 9h7c0-8 0-10 8-10h10l-2-4h1l10 6c7 6 7 8 16 6l2-6c5-1 17-2 22-1q5 2 8 6 7-2 15 0l7 7 8 10-14 17q-2 4-6 6-7 1-14-2l-6-6-8 1q1 5-4 6h-19l-5-1-4-6-13 1v6h-25l-6-7h-30l-7 7-6 5-8 5c-5 3-23 1-31 1l-3 12c-4 4-13 3-18 3h-14l-1 12-4 1h-30l-6 18q-1 6 2 12c1 16-16 12-25 12l-6 25-8 34 14 1c18 6 20 32 2 40q-10 3-21 2H42q-16-3-15-19l2-19 3-10 11-43 8-34z"/><path fill="#c7eefa" d="M35 243c0-6-1-30 1-35l4-6q6-5 15-5h98v106H58q-11 1-19-5l-4-7z"/><path fill="#79bde2" d="M35 243v8h118v52H58q-11 1-19-5l-4-7z"/><path fill="#0a3f60" d="M66 225h15q4 0 6 2l1 2c0 7-13 5-18 5-4 0-19 1-21-2q-2-1-2-3l1-2c3-3 14-2 18-2m-15-17 34 1q3 0 3 3v3l-3 1H52q-3 1-5-3 0-4 4-5"/><path fill="#79bde2" d="M64 312h26l7-1q-2 18-7 35l-15 66H40l12-51 7-29z"/><path fill="#c7eefa" d="M90 312h7q-2 17-7 34l-15 66H62l2-8 12-50 7-27 3-15zM42 421h39c8 0 15-2 20 5q7 11-4 20l-13 1H70l-26-1-6-1-2-5c0-3 0-17 2-18z"/><path fill="#79bde2" d="M196 226h27v48l-10 1-17-1z"/><path fill="#c7eefa" d="M196 226h27v24h-27zm-35-15 26 1 1 14-1 25-26-1z"/><path fill="#79bde2" d="m161 250 26 1 1 13-1 26h-26z"/><path d="M113 310h4q-4 10-4 20v11q-1 8-10 5-3 1-4-2l6-24 3-9z" style="fill:#b01f3b"/><path fill="#c7eefa" d="M309 234h11l7 9 13 18 2 3-10 1c-5-4-11-15-15-20zm43 0c3 0 10 0 13 2l11 14 7 11-2 2-4 3-17-22z"/><linearGradient id="a" x1="3256.1" x2="3225.1" y1="-1401.6" y2="-1264.6" gradientTransform="matrix(.25 0 0 -.25 -527 -84)" gradientUnits="userSpaceOnUse"><stop offset="0" style="stop-color:#b4e2f4"/><stop offset="1" style="stop-color:#d3f9fb"/></linearGradient><path d="M266 235c7 1 12-1 16 6l18 23h-1l-8 1c-5-3-12-14-15-19z" style="fill:url(#a)"/><path fill="#79bde2" d="m231 231 4 3c5 5 5 7 5 14l-1 14-2 3q-2 3-5 3l-1-21z"/><path fill="#c7eefa" d="M254 244h9l9 13h-6l-17-1v-12zm93-2 12 16h-10c-2 0-12-13-12-14z"/><path fill="#79bde2" d="M294 243h11l11 15-11-1zm87-2q7 2 13 9l-3 2-2 3c-2-3-8-11-8-14"/><path fill="#c7eefa" d="M212 360q-1-26 20-41 6-5 17-4 3 4 1 9h-4c-2 2-7 9-7 11 1 1 3-2 6-1l1 1v1c6 3 5 10-2 10l-1 1c1 2 6 3 5 6h-4l-1 3h3q-2 2-5 1l-13 7c-4-2-4 3-12-2l-1 2z"/><path fill="#254e67" d="M238 340q2-6 8-4c6 3 5 10-2 10q-4-1-6-6"/><path fill="#0a3f60" d="M234 158a17 17 0 1 1 5 33h-1a17 17 0 0 1-4-33"/><path fill="#c7eefa" d="M236 165c11 0 16 16 2 19l-6-1-5-5q-2-9 9-13"/><path fill="#0a3f60" d="M279 288c8 0 18 8 18 17q-1 13-14 15h-3l-9 1q-3-1-3-4c-7-12-5-26 11-29"/><path fill="#c7eefa" d="M279 295q7 1 10 7 2 9-7 12-8 2-10-6-2-10 7-13"/><path fill="#0a3f60" d="M272 119q12 0 15 12c3 12-4 14-12 15s-14-4-15-12 4-14 12-15"/><path fill="#c7eefa" d="M271 128q4 0 7 2l1 4-4 4c-7 0-12-8-4-10"/><path fill="#0a3f60" d="M254 383q12 0 15 11c3 11-4 14-11 16s-14-4-16-12 4-14 12-15"/><path fill="#79bde2" d="M255 391c6 0 9 8 2 11q-13-4-2-11"/><path fill="#c7eefa" d="M271 166c2-4 3-3 7-5 5 2 5 3 8 7l10 5q3 3 2 6 0 11-11 11l-5-1c-6-2-7-11-9-16z"/><path fill="#79bde2" d="m282 189-2-3c-2-3 2-9 5-10q3-2 6 0h4l3 3q0 11-11 11z"/><path fill="#c7eefa" d="M291 176h4l2 3q1 11-10 11c7-1 3-4 4-8z"/><path fill="#254e67" d="M281 343c6 0 9 7 1 11q-5-1-7-6 2-3 6-5"/><path fill="#0a3f60" d="M295 202h2q6 1 5 5 0 4-4 4-4 3-6-2v-5q0-2 3-2"/><path fill="#254e67" d="M268 200c5 0 9 9 0 11q-5-2-5-6z"/></svg>