<svg xmlns="http://www.w3.org/2000/svg" viewBox="-54 -54 620 620"><path fill="#5290bb" d="M488 88h16V56h-16q1-4-2-6c-4-3-11-1-15-2l-1-2-7-5-13-1h-36c-10 0-14-1-21 8h-10l-2-3c-5-6-12-5-20-5h-35c-9 0-15-1-21 8h-10l-1-2c-6-8-14-6-23-6h-35c-11 0-12 0-19 8h-10c-7-9-10-8-20-8h-38c-9 0-13-1-19 8h-11l-1-2q-6-7-17-6H52c-7 2-7 4-11 8-1 1-14-2-16 3l-1 5H8v32h16c0 10 9 8 16 8v304c-6 0-16-2-16 7v1H8v32h16c0 10 9 8 16 8q-2 12 4 20 6 6 14 4h43q8 2 15-4c6-6 4-13 4-20h8c0 9-1 17 7 22l3 2h54q7 1 12-4 6-9 4-20h8c0 8-1 17 7 22l3 2h47q10 2 19-4c6-6 4-13 4-20h8c0 8-1 17 7 22l3 2h46c8 0 14 2 20-4s4-13 4-20h8c0 10-2 17 8 23q5 2 12 1h46q9 0 13-8 2-7 1-16c8 0 16 3 16-8h16v-32h-16c0-10-8-8-16-8V96c8 0 16 2 16-8M129 398c0 6-10 6-10 0V99c0-6 10-6 10 0zm88 0c0 7-10 7-10 0V98c0-7 10-7 10 0zm88-1c0 7-10 7-10 0V98c0-6 10-6 10 0zm88 1c0 7-10 7-10 0V99c0-6 10-6 10 0z"/><path fill="#fefefe" d="M48 394V175q1-6 7-7h48q8 0 9 8v218zm88 0V181q0-6 2-10 6-4 14-3h26q11-1 20 3l2 5v218zm176 0V176c1-9 10-8 16-8h26q11-1 20 3l2 5v218zm88 0V176c1-9 11-8 17-8h26c5 0 14-1 19 3l2 5v218zm-176 0V176c1-9 11-8 17-8h26c5 0 15-1 19 3l2 5v218z"/><path fill="#5290bb" d="M256 304q8 0 14 5 8 6 10 15 2 12-6 20l-6-5 4-9a16 16 0 0 0-26-15q-4 5-6 11 0 7 4 13l-6 5q-5-6-6-14c-1-13 9-25 22-26z"/><path fill="#5290bb" d="M255 320q7-1 10 6 1 7-6 10h-2q-8-1-8-8 1-6 6-8"/><path fill="#d4f4fd" d="M48 394h64v63q-2 7-9 7H63q-7 1-13-2l-2-4zm264 0h64v63q-1 5-6 7h-45q-6 0-10-2l-3-5zm-88 0h64v63q-1 5-6 7h-45q-6 0-10-2l-3-5zm176 0h64v63q-1 8-10 7h-41q-6 1-10-2l-3-4zm-264 0h64v63q-1 5-6 7h-45q-6 0-10-2l-3-5z"/><path fill="#fefefe" d="M48 72V55q1-5 6-7h47q8-1 11 7v17c0 9 3 24-9 24H54q-4-1-6-6z"/><path fill="#d4f4fd" d="M48 72h64c0 8 3 24-9 24H54q-4-1-6-6z"/><path fill="#fefefe" d="M224 72V55q1-5 6-7h47q9-1 11 7v30c0 10-3 11-13 11h-30c-24 0-21 0-21-24"/><path fill="#d4f4fd" d="M224 72h64v12c0 11-3 12-13 12h-30c-24 0-21 0-21-24"/><path fill="#fefefe" d="M400 72V55q1-5 6-7h47q12-1 11 13v29q-3 8-12 6h-31c-23 0-21 0-21-24"/><path fill="#d4f4fd" d="M400 72h64v18q-3 8-12 6h-31c-23 0-21 0-21-24"/><path fill="#fefefe" d="M136 72V55q1-5 6-7h47c10 0 11 4 11 14v28q-3 8-12 6h-31c-24 0-21 0-21-24"/><path fill="#d4f4fd" d="M136 72h64v18q-3 8-12 6h-31c-24 0-21 0-21-24"/><path fill="#fefefe" d="M312 72V55q1-5 6-7h47c10 0 11 4 11 14v10c0 9 3 24-9 24h-49q-4-1-6-6z"/><path fill="#d4f4fd" d="M312 72h64c0 8 3 24-9 24h-49q-4-1-6-6zm160 336h8v32h-8zm-176 0h8v32h-8zm88 0h8v32h-8zm-264 0h8v32h-8zm88 0h8v32h-8zm-176 0h8v32h-8zm88-352h8v32h-8zm264 0h8v32h-8zm-176 0h8v32h-8zm88 0h8v32h-8zm176 0h8v32h-8zM32 56h8v32h-8zm16 47v-1c6 3 17 2 24 2v8H48zm352 0v-1c6 3 17 2 24 2v8h-24zm-264 0v-1c6 3 17 2 24 2v8h-24zm88 0v-1c6 3 17 2 24 2v8h-24zm88 0v-1c6 3 17 2 24 2v8h-24zM48 152h24v8c-6 0-19-1-24 2zm264 0h24v8c-6 0-19-1-24 2zm-176 0h24v8c-6 0-19-1-24 2zm264 0h24v8c-6 0-19-1-24 2zm-176 0h24v8c-6 0-19-1-24 2zm64-50v10h-24v-8c7 0 19 1 24-2m-176 0v10H88v-8c7 0 19 1 24-2m264 0v10h-24v-8c7 0 19 1 24-2m-176 0v10h-24v-8c7 0 19 1 24-2m264 0v9h-24v-8c6 0 19 1 24-2m-24 50h24v10c-5-3-18-2-24-2zm-88 0h24v10c-4-3-18-2-24-2zm-176 0h24v10c-4-3-18-2-24-2zm-88 0h24v10c-4-3-18-2-24-2zm176 0h24v10c-4-3-18-2-24-2zm-128-16h24v8h-24zm-48-16h24v8H88zm0 16h24v8H88zm176-16h24v8h-24zm-216 0h24v8H48zm128 0h24v8h-24zm-40 0h24v8h-24zm264 0h24v8h-24zm-224 16h24v8h-24zm88 0h24v8h-24zm88 0h24v8h-24zm-128-16h24v8h-24zm216 16h24v8h-24zm-392 0h24v8H48zm352 0h24v8h-24zm-88-16h24v8h-24zm128 0h24v8h-24zm-88 0h24v8h-24zm-40 16h24v8h-24zm-88 0h24v8h-24z"/><path fill="#fefefe" d="M16 416h8v16h-8z"/><path fill="#d4f4fd" d="M16 424h8v8h-8z"/><path fill="#fefefe" d="M16 64h8v16h-8z"/><path fill="#d4f4fd" d="M16 72h8v8h-8z"/><path fill="#fefefe" d="M488 416h8v16h-8z"/><path fill="#d4f4fd" d="M488 424h8v8h-8z"/><path fill="#fefefe" d="M488 64h8v16h-8z"/><path fill="#d4f4fd" d="M488 72h8v8h-8z"/><path d="m312 103-2-2q-5-5-5-11v2c0 4 5 7 7 10zm88 0-2-2q-5-5-5-11v2c0 4 5 7 7 10zm-264 0-2-2q-5-5-5-11v2c0 4 5 7 7 10zm88 0-2-2q-5-5-5-11v2c0 4 5 7 7 10zm240-1 7-10 1-2q0 6-5 10zm-416 1c-3-4-9-7-7-13l1 5 6 7zm328-1c2-3 7-5 7-10l1-2q-1 8-8 12m-176 0c2-3 7-5 7-10l1-2-1 6zm88 0c2-3 7-5 7-10l1-2-1 6zm-176 0c2-3 7-5 7-10l1-2-1 6zm0 60 6 6v1l-1-1zm176 0 6 6v1l-1-1zm-88 0 6 6v1l-1-1zm176 0 6 6v1l-1-1zm88 0 5 4 1 2-2-2zm-152 0-6 6q2-4 6-6m-176 0-6 6zm88 0-6 6q2-4 6-6m176 0-6 6q2-4 6-6m-352 0-2 2-4 4v-1zM383 49l1 5zm-264 0 1 5zm88 0 1 5zm88 0 1 5zm176 1 1 4z" style="fill:#7aabd0"/></svg>