<svg xmlns="http://www.w3.org/2000/svg" viewBox="-84 -66 1180 1180"><path fill="#134265" d="M94 168h808l21-1c11 0 24 9 30 18 14 16 22 51 26 73l2 37c1 11-2 28-2 40l-6 28c-6 21-13 42-29 56q-9 8-21 7H211l-91 1c-23-1-41 4-57-18q-23-30-27-69l-2-14-1-13v-29q-1-16 3-28 3-42 29-74 11-14 29-14"/><path fill="#bfd5e5" d="M94 168h808l21-1c11 0 24 9 30 18 14 16 22 51 26 73l2 37c1 11-2 28-2 40l-6 28c-6 21-13 42-29 56q-9 8-21 7H211l-91 1c-23-1-41 4-57-18q-23-30-27-69l-2-14 1-13c2 34 9 67 29 95 14 19 28 16 49 16h812q9 1 16-5 16-13 23-34l3-11q6-19 10-39l1-24c2-39-3-94-27-126-16-19-24-15-46-15H103z"/><path fill="#caedf7" d="M33 284q-1-15 3-28c3-27 10-54 29-74q11-14 29-14l1 1 8 1h98-77c-8 0-34 0-40 2-39 12-48 84-50 114v-6l-1 1h1z"/><path fill="#bfd5e5" d="m33 284 1-3h-1l1-1v6l1 27q1 7-2 13z"/><path fill="#caedf7" d="M123 186q12 2 26 1h757l23 1c13 8 19 28 24 41 3 3 4 16 4 21l3 21 1 24c0 34-5 81-29 108l-4 3H122c22-24 28-76 29-108 0-19-2-32-4-51v-1c-2-1-4-13-5-17v-1c-2-13-13-30-19-42"/><path fill="#fdfefe" d="M123 186q12 2 26 1h757l23 1c13 8 19 28 24 41 3 3 4 16 4 21l3 21 1 24-3 1H217l-58 1-8 1c0-19-2-32-4-51v-1c-2-1-4-13-5-17v-1c-2-13-13-30-19-42"/><path fill="#fdfefe" d="M123 186q12 2 26 1h757l23 1c13 8 19 28 24 41l-28-1H142c-2-13-13-30-19-42"/><path fill="#1380d7" d="M142 228h783l28 1c3 3 4 16 4 21l-1-4-18 2H352l-141-1c-18 0-47 2-64 0-2-2-4-14-5-18z"/><path fill="#caedf7" d="M92 188c18-1 29 32 33 46 12 50 12 109-12 156q-6 12-19 17c-30-2-41-83-42-107 0-26 8-106 40-112"/><path fill="#134265" d="M775 742h18l55-1h71c13 1 25-3 36 6q20 16 24 42c4 26 3 55-13 76-5 7-14 16-23 16H96c-20 0-31 5-46-13-16-19-19-43-17-68 2-23 16-57 44-58h272l216-1h26c30 1 62-2 92 0z"/><path fill="#bfd5e5" d="M96 881c-20 0-31 5-46-13-16-19-19-43-17-68 2-23 16-57 44-58h272l216-1h26c30 1 62-2 92 0h92l6 3H93c-15 0-29-1-40 11-25 29-25 87 2 115q11 10 25 9h17z"/><path fill="#bfd5e5" d="M97 879h655c5 3 150-1 167 1h24v1H96z"/><path fill="#caedf7" d="M775 742h18l55-1h71c13 1 25-3 36 6q20 16 24 42c4 26 3 55-13 76-5 7-14 16-23 16v-1h-24c-17-2-162 2-167-1h170c14 0 26 2 37-9 15-15 20-38 20-58 0-21-5-44-19-59-11-11-22-9-36-9H781q-4 0-6-2"/><linearGradient id="a" x1="1514.2" x2="1514.4" y1="-616.5" y2="-724.5" gradientTransform="matrix(.5 0 0 -.5 -223 500)" gradientUnits="userSpaceOnUse"><stop offset="0" style="stop-color:#e0ebf3"/><stop offset="1" style="stop-color:#c6f3fe"/></linearGradient><path d="M104 762h835c12 0 18 19 21 29 2 4 4 13 3 18-3 18-4 42-22 53H104c11-20 13-31 12-54-2-7-3-10 0-18l-5-14z" style="fill:url(#a)"/><path fill="#fdfefe" d="M104 762h835c12 0 18 19 21 29l-6-2-32-1-49 1H173c-10 0-50-1-57 1l-5-14z"/><path fill="#d50e0c" d="M116 790c7-2 47-1 57-1h700l50-1 31 1 6 1c3 5 4 14 3 19l-1-1H117c-3-7-4-10-1-18"/><path d="m954 789 6 1q5 9 3 18h-11c6-8 9-10 2-19" style="fill:#a23443"/><path fill="#caedf7" d="M76 762c15-1 22 26 23 38 1 19 0 41-13 56q-4 6-10 6c-32-8-32-91 0-100m-6-307h870q6-1 12 3 20 12 26 36c6 21 4 46-4 66l-3 7c-10 18-19 25-40 24H392l-207 1q-55 1-109-1-8 0-15-4c-41-23-39-118 9-132"/><path fill="#134265" d="M95 457h844c28 1 40 38 40 62q0 26-11 50l-8 10c-10 12-27 10-42 10H75c-37-2-44-56-39-84 2-12 7-27 16-37 13-14 26-11 43-11"/><linearGradient id="b" x1="1513.9" x2="1513.7" y1="-40.8" y2="-144.2" gradientTransform="matrix(.5 0 0 -.5 -223 500)" gradientUnits="userSpaceOnUse"><stop offset="0" style="stop-color:#ddecf5"/><stop offset="1" style="stop-color:#c7f2fb"/></linearGradient><path d="M105 474h831q10-1 15 9 5 7 7 15l2 6c1 3 4 10 2 13l-1 3c1 16-2 34-13 46q-6 7-14 6l-62-1H137l-33 2q14-24 13-51l-1-5c-1-4-2-13 0-17l-2-2q-3-13-9-24" style="fill:url(#b)"/><path fill="#fdfefe" d="M105 474h831q10-1 15 9 5 7 7 15l-2 1H142l-26 1-2-2q-3-13-9-24"/><path fill="#d50e0c" d="m958 498 2 6c1 3 4 10 2 13l-1 3-624 1H216l-63-1h-32l-4 1-1-4c-1-4-2-13 0-18h840z"/><path d="M957 517h5v3l-625 1H216l-63-1h-32l-4 1-1-4z" style="fill:#f9dbdf"/><path d="m958 498 2 6c1 3 4 10 2 13h-5v-17l-1-1z" style="fill:#a06375"/><path d="m958 498 2 6h-2l-1-4-1-1z" style="fill:#a77386"/><path fill="#caedf7" d="M77 474c18 4 23 36 22 51q0 15-5 28c-3 8-9 19-19 19-33-13-29-90 2-98m8 132h57l57 1 92-1h624c15 0 38-3 49 9 23 25 23 78 0 102q-13 12-32 10H112c-16 0-45 3-58-8-27-22-27-74-7-101 10-13 23-11 38-12"/><path fill="#134265" d="M86 609h150l418-1 195 1 62-1 34 1q16 1 24 15c13 23 13 55 2 79q-3 8-10 14c-9 9-23 7-35 7H368l-134 1-97-1H74q-12-1-21-8c-24-23-24-72-4-97 10-12 24-10 37-10"/><path fill="#caedf7" d="M95 625h842c13 0 16 5 21 16 3 3 5 13 4 18 0 14-2 47-21 48l-26 1-40-1H172l-79 1q4-5 6-11c6-14 6-24 6-38l-2-18z"/><path fill="#1380d7" d="M95 625h842c13 0 16 5 21 16 3 3 5 13 4 18H106l-2-18z"/><path fill="#fdfefe" d="M95 625h842c13 0 16 5 21 16H103z"/><path fill="#caedf7" d="M70 623q6 3 10 8c13 20 11 62-9 77-21-11-21-42-16-62q2-14 15-23"/></svg>