<svg xmlns="http://www.w3.org/2000/svg" viewBox="-87 -91 1200 1200"><path fill="#12466d" d="M131 220c-17-13-10-26 0-40 7-11 25-21 38-23h134l24 2 31 1h24q26 3 53 3l26 3 44 3h16l15 2 17 1 39 5 14 1 33 5c57 8 176 26 220 61q9 7 16 17c9 14 23 51 18 68l-3 8c-2 3-8 10-8 13 0 4 7 19 8 25l2 13c7 5 11 7 15 15a807 807 0 0 1 79 281l3 20 1 16q3 14 3 29l3 3v65c0 8-11 17-18 19a588 588 0 0 1-107 23l-14 1-15 2h-57l-16-2q-20-1-40-5l-52-10c-13-3-46-8-56-14q-7-5-11-12l-6-13-8-18q-21-42-53-76a805 805 0 0 0-291-177l-43-17-34-14c-6 15-10 34-23 43-12 0-15-2-26-6l-32-13c-10-4-45-15-51-23-8-10 10-35 10-45l-5-4c-25-13-19-34-10-57q4-14 13-29l8-10c15-10 38-3 54-3l28 3q26 3 52 9 120 25 232 73l49 21c16 7 26 15 44 18 28 4 49-14 67-33l20-20h1q-2-17 0-33l-1-4c-11-9-15-14-19-28q-4-17-17-32c-18-18-44-29-67-39l-59-23-40-12q-63-18-128-28l-26-3-22-1c-11-3-24-1-34-2q-31-3-62-3"/><path fill="#9ed5ef" d="M131 220c-17-13-10-26 0-40 7-11 25-21 38-23h134l24 2 31 1h24q26 3 53 3l26 3 44 3h16l15 2 17 1 39 5 14 1 33 5c57 8 176 26 220 61q9 7 16 17c9 14 23 51 18 68l-3 8c-2 3-8 10-8 13 0 4 7 19 8 25l2 13c7 5 11 7 15 15a807 807 0 0 1 79 281l3 20 1 16q3 14 3 29l3 3v17h-1l-10-86c-13-87-30-174-67-254-8-19-10-28-27-39l-5-25-7-17c9-8 13-12 14-25 0-22-12-58-28-73-25-23-74-36-106-44q-59-14-119-21-112-16-226-21l-24-1-73-3-135-3q-27 0-47 19c-9 9-19 28-8 40 5 5 16 3 22 3l26 1 18 1 42 3q142 13 273 70 35 13 62 37 17 20 21 44 6 10 15 16v17l1 21q-11 7-19 18c-12 13-27 28-45 33q-16 4-33 1-18-6-33-15-124-57-255-89a783 783 0 0 0-130-20c-15-1-30-3-40 12q-6 9-9 21c-6 15-18 37-9 53q8 11 20 15c2 2-2 10-3 14-5 11-9 18-9 31l10 8 38 14 36 14c9 4 22 11 31 3q9-12 13-27c0-2 3-12 5-11 138 54 321 122 404 252q14 21 24 45c5 10 9 26 20 30q17 6 34 9c51 11 101 21 153 21q85-2 168-26 13-5 18-18c0 8-11 17-18 19a588 588 0 0 1-107 23l-14 1-15 2h-57l-16-2-39-4-53-11c-13-2-46-8-56-14q-7-4-11-12l-6-13-8-18q-21-42-52-76a805 805 0 0 0-292-177l-43-17-34-14c-6 15-10 34-23 43-12 0-15-2-26-6l-32-13c-10-4-45-15-51-23-8-10 10-35 10-45l-5-4c-25-13-19-34-10-57q4-14 13-29l8-10c15-10 38-3 54-3l28 3q26 3 52 9 120 25 232 73l49 21c16 7 26 15 44 18 28 4 49-14 67-33l20-20h1q-2-17 0-33l-1-4c-11-9-15-14-19-28q-4-17-17-32c-18-18-44-29-67-39l-59-23-40-12q-63-18-128-28l-26-3-22-1c-11-3-24-1-34-2q-31-3-62-3"/><linearGradient id="a" x1="2188.1" x2="982.4" y1="241.6" y2="-512.6" gradientTransform="matrix(.5 0 0 -.5 -223 500)" gradientUnits="userSpaceOnUse"><stop offset="0" style="stop-color:#d0f1fa"/><stop offset="1" style="stop-color:#fff"/></linearGradient><path d="M76 372a1039 1039 0 0 1 162 24q123 33 238 87l30 13c34 9 65-7 88-32 7-7 17-19 25-23 9 0 26 4 36 5q42 6 84-2 41-7 82-20c19-6 39-17 59-20 12-2 22 28 26 36 37 86 55 180 66 272l6 58c1 13 4 30 2 43q-3 5-7 7c-75 21-154 32-232 19-12-2-30-3-41-7l-13-30q-15-33-37-63a680 680 0 0 0-254-197l-61-29c-81-36-165-63-249-89-8-3-29-8-35-12l9-21c3-8 6-18 16-19" style="fill:url(#a)"/><path fill="#12466d" d="M828 709c40-5 63 39 42 72-4 6-12-4-14-7 12-20 7-42-17-49q-11-2-22 4a31 31 0 0 0-7 45q-4 6-10 9c-17-11-15-44-2-58q11-14 30-16"/><path fill="#12466d" d="M829 739q15-2 19 12a16 16 0 0 1-31 7q-1-15 12-19"/><path d="M138 204q5-19 23-27c15-6 35-4 50-4l72 1a3726 3726 0 0 1 346 25c24 3 54 7 79 13 36 5 106 23 136 42q9 6 15 13c9 13 19 42 17 57q-3 12-14 17c-31 22-83 35-120 41-28 3-46 6-75 6l-1-19c-4-19-16-40-30-54-51-53-134-70-205-82a1902 1902 0 0 0-144-18l-52-7q-48-3-97-4" style="fill:#fefefe"/><path fill="#cdf0f9" d="M708 212c36 5 106 23 136 42q9 6 15 13c9 13 19 42 17 57q-3 12-14 17c-31 22-83 35-120 41l-7-36-21-93c-1-7-8-36-6-41"/><path fill="#9ed5ef" d="m47 429 21 6 37 12a1971 1971 0 0 1 281 108q31 15 60 33c97 55 184 125 230 229l5 12c-15-4-38-7-53-13-4-6-11-24-15-32a372 372 0 0 0-106-130q-62-47-132-81-17-10-35-18a2713 2713 0 0 0-215-87l-41-17-32-11c-3-1-5-8-5-11m418-173 23 5a349 349 0 0 1 129 58q14 12 23 29 10 18 11 38c-13-2-34-7-43-17-3-3-6-14-7-18a91 91 0 0 0-29-40c-16-12-40-23-58-32l-52-21q1-2 3-2"/><path fill="#cdf0f9" d="M622 396c38 12 86 7 124 1l5 19 3 9c-39 10-94 10-132-2z"/><path fill="#9ed5ef" d="M746 397c40-8 85-17 120-39l8 29-42 15q-39 15-78 23l-3-8zm-631 85c11 4 34 11 44 16l-13 32-20-7-26-11 3-3z"/><path fill="#cdf0f9" d="m70 464 45 17-15 31c-12-5-30-11-41-17z"/><path d="M462 258q-11-1-18-8l21 6q-2 0-3 2" style="fill:#5f9ec9"/></svg>