<svg xmlns="http://www.w3.org/2000/svg" viewBox="-33 -21 580 580"><path fill="#0e4162" d="m386 55 20 1q12 1 23 7l3 3c-2 5-12 14-16 18l-29 28c-2 2-9 8-10 11l3 11 5 18 4 3 13 4 16 6 12-12 29-28c4-4 12-12 16-14 6 5 7 15 9 22q4 27-7 52c-19 42-65 66-111 58-22-7-23-2-39 13l-34 34q-45 42-89 87c-6 6-15 13-19 20-4 5-1 19-1 26 0 33-19 58-49 70q-25 10-52 4-8-2-5-8l38-37 9-10-5-17q-2-10-11-13l-21-7-10 11q-19 16-36 34c-1 2-6 6-8 3-5-7-7-19-8-28q-1-22 11-40c4-5 14-17 19-21q20-14 45-16c10-1 21 3 29-5q10-8 18-17l41-40 69-67 25-24c12-13 6-22 5-37q-1-40 25-70 30-30 73-33"/><linearGradient id="a" x1="3361.4" x2="2909.8" y1="-1702.7" y2="-1242.7" gradientTransform="matrix(.25 0 0 -.25 -527 -84)" gradientUnits="userSpaceOnUse"><stop offset="0" style="stop-color:#8fd8f8"/><stop offset="1" style="stop-color:#daf4fa"/></linearGradient><path d="M298 146c-1-5 2-15 3-20 16-45 62-71 109-60l10 2-9 7-24 24c-5 5-19 17-21 23l5 15 6 21 3 3c5 4 16 5 22 8l12 3q6 3 10-2l48-45 2 10q4 31-12 58a94 94 0 0 1-95 41q-12-5-24-2l-12 8-33 32-72 70-31 30q-10 7-17 17c-9 13-2 27-4 41-4 28-25 52-53 58-12 3-19 2-31 2l17-17 14-15q7-4 12-12l1-4-5-15-4-14-3-5-36-12c-5 1-11 9-15 12l-25 25-9 10q-6-22 2-43c10-22 34-40 58-42 18-2 24 3 39-8l34-34 50-48 63-61q9-8 14-17 4-11 1-23z" style="fill:url(#a)"/><path fill="#fff" d="M298 146c-1-5 2-15 3-20 16-45 62-71 109-60l10 2-9 7-8-1-19 1q-21 3-40 14l-7 5-7 5-7 8q-12 12-16 28l-1 6-1 6v-3c-4 0-4 5-7 2l-1 5zM136 350l-2 2 3 6 1-4h1c0 2-4 11-6 12-10 5-24 1-35 2q-31 5-49 30l-8 1-1 2v-1c9-22 33-40 57-42 18-2 24 3 39-8"/><path fill="#0e4162" d="M300 213q14-1 17 12c2 11-5 16-12 23l-19 18-8 8-57 55-10 10-20 19-9 9q-4 6-10 7-6 0-11-3-6-3-7-10-1-6 2-11 12-14 25-26l39-38 53-51 13-13q5-7 14-9"/><path fill="#8cceef" d="M302 222c8-1 8 6 5 11l-4 4-11 11-31 29-67 66-19 18q-3 4-7 4-6-1-7-7c2-5 12-14 16-18l53-51 43-42z"/><path fill="#0e4162" d="m346 150 4 2q16 13 31 29l3 5c1 6-9 13-13 17-4 5-11 13-17 14l-2-1c-7-1-21-17-27-23-2-2-12-10-10-14q6-8 14-15 8-8 17-14"/><linearGradient id="b" x1="3425.5" x2="3506.3" y1="-1053.8" y2="-984.8" gradientTransform="matrix(.25 0 0 -.25 -527 -84)" gradientUnits="userSpaceOnUse"><stop offset="0" style="stop-color:#5ea0cd"/><stop offset="1" style="stop-color:#83c5eb"/></linearGradient><path d="m346 160 7 5-19 13-6 2c3-6 13-15 18-20" style="fill:url(#b)"/><linearGradient id="c" x1="3516" x2="3607.5" y1="-1135.2" y2="-1089" gradientTransform="matrix(.25 0 0 -.25 -527 -84)" gradientUnits="userSpaceOnUse"><stop offset="0" style="stop-color:#559ac3"/><stop offset="1" style="stop-color:#80bbdd"/></linearGradient><path d="m370 183 5 5-9 8-8 9-4 1 1-3q6-12 15-20" style="fill:url(#c)"/><linearGradient id="d" x1="3487.8" x2="3556.5" y1="-1096" y2="-1034.1" gradientTransform="matrix(.25 0 0 -.25 -527 -84)" gradientUnits="userSpaceOnUse"><stop offset="0" style="stop-color:#58a3cd"/><stop offset="1" style="stop-color:#88c7eb"/></linearGradient><path d="m359 171 5 6-15 15-2 2q-2-4 0-7z" style="fill:url(#d)"/><path fill="#8cceef" d="M337 186q2 2 0 6h-2q-3-4 2-6"/><path fill="#c5effa" d="M350 199h2l-1 4h-1q-6-3 0-4M125 60l3-16q0-3 3-5c6-3 37-3 43-1s5 16 7 21l2 2 10 4 8 3q7-3 12-8l8-2c6 2 26 22 29 27 5 9-8 16-9 22v2l2 5 5 12c8 3 19 1 24 8 0 7 2 37-1 41s-15 4-20 5h-1q-4 5-6 12l-4 7c3 5 6 6 9 13q-2 4-5 5l-11 10-13 11-2 1-1 1 1 1q0 3-4 5l-13-8-18 8q-4 3-3 7c-3 18-3 17-20 17h-17l-12-1c-4-5-5-16-6-23l-20-8c-4 3-17 15-22 12q-14-12-26-25c-9-9 4-18 8-25v-1l-4-8-4-9c-5-3-17-2-22-6l-1-4-1-17 1-22c6-6 15-5 23-6v-1l3-8 4-11-10-16v-5c3-6 24-26 30-28s14 8 19 10v1l11-5z"/><path fill="#0e4162" d="M153 84q21 0 38 12l-4 2-3 2h4l3 2h-4q5 1 7 3l5 10 8 12 3 6v-1l1 1q1-5 6-8c6 7 8 26 7 34-4 34-31 61-65 64h-8c-9 0-24-5-33-9a68 68 0 0 1-35-59c0-39 31-71 70-71"/><path fill="#0e4162" d="M153 84q21 0 38 12l-4 2-3 2h4l3 2h-4l-7-1q-5-4-11-4l-2-2h-23c-8 1-21 6-27 11q-15 12-22 31-3 8-2 17 0 21 13 36 17 21 45 23c6 1 7 0 13-1 21-4 40-19 47-39l3-15q0-13-4-25h1q2-6 6-7c6 6 8 25 7 33-3 34-30 61-64 64h-9c-9 0-24-5-33-9a68 68 0 0 1-35-59c0-39 31-71 70-71"/><path fill="#fff" d="M211 133c3 11 5 16 4 28q-3 23-23 39a61 61 0 0 1-46 14 60 60 0 0 1-53-71c5-35 40-55 74-49q8 4 17 6h4l3 2v1l-4-1-7-1q-5-4-11-4l-2-2h-23c-8 1-21 6-27 11-10 7-18 20-22 31q-3 8-2 17 0 21 13 37 17 20 45 22c6 1 7 0 13-1 21-4 40-19 47-39l3-15c1-7-2-18-4-25z"/><path fill="#fff" d="M190 117q7 1 11 6v7l-13 17-18 24c-7 9-8 13-19 18l-9-4-17-17-5-6-9-11q0-8 7-11 5-3 9 0 7 4 13 11c9 9 11 1 18-4l12-11q9-12 20-19"/><path fill="#4097c9" d="M191 119q8 1 9 7c0 6-8 13-11 17l-16 22-13 16c-10 12-17 3-25-5l-10-11c-5-4-12-10-13-16 2-6 9-12 15-8l21 19 11-12 16-16 12-11z"/><path fill="#8cceef" d="M149 46c25-2 20-3 24 20 4 4 13 5 18 7l11 6 19-12 22 22c-3 6-10 11-12 18l11 27 22 3v33c-7 1-17 0-22 5l-4 9-7 16a125 125 0 0 0 20 27l-24 22a112 112 0 0 0-25-20c-35 16-26 1-33 33h-16v-38l-2-1c49 3 91-53 66-97q-5 1-6 7h-1l-11-18q-3-10-12-13l3 1 1-1-4-2h-3l6-4q-16-12-37-12V46z"/><path fill="#c5effa" d="M187 98q2 3 6 4l1 1 5 11c3 4 9 8 8 13l-8-12-5-10-6-3 3 1v-1l-3-2h-4z"/><path d="m191 96 4 5-2 1q-4 0-6-4z" style="fill:#83bed9"/><path fill="#0e4162" d="M125 60c2-7 0-16 6-21 6-3 36-3 43-1 6 2 5 16 7 21q6 5 12 6l8 3c7-2 12-11 20-10 6 2 26 22 29 27 5 10-10 16-9 24l7 17c8 3 19 1 24 8 0 7 2 37-1 41-4 5-16 4-21 5q-4 5-6 12l-4 7 15 22-16 19-7 5-4 3-4-3 13-12q11-10 10-11l-10-12q-7-8-6-10c-1-7 4-13 7-16l3-9c6-5 16-4 23-5v-32l-22-4-12-27 13-18c-5-5-17-18-23-22l-18 12-11-6q-11-2-18-7c-2-5-2-17-4-20-7-2-24 0-32 0-6 21 3 20-18 25-4 1-13 8-16 7q-8-6-17-10c-5 2-19 17-22 21 0 8 12 12 11 20q-7 12-10 25l-23 4c1 36-7 29 21 35 3 1 5 11 7 14 10 16 3 17-6 31 2 4 18 19 22 22 19-12 14-16 35-5 19 5 10 8 16 26h32c7-31-2-16 33-32l26 19-6 6q-8-10-20-16l-19 8-3 7c-2 18-2 17-20 17h-16l-12-1c-4-5-6-16-6-23q-11-2-20-8c-4 3-17 15-22 12l-27-25c-9-9 5-18 9-26l-8-17c-6-3-17-2-22-6l-2-4v-39c6-6 15-5 23-6l8-20c-3-7-13-12-10-21 2-6 23-26 29-28 7-2 15 8 20 11zm183 295c5 1 18 3 22 7 4 3 1 9 1 15 6 8 13-3 18-1 4 1 11 11 13 15l2 4c-1 4-8 7-9 12-2 8 14 6 17 11v21q-7 5-13 5c-10 4 2 11 5 17v1q-3 8-11 16c-8 8-15-8-22 1-4 4 4 11-1 16-3 3-11 3-14 5-11 5-10-4-16-10-7-6-9 6-13 10l-2 2c-6-1-19-5-22-9l-1-15c-3-7-14 4-18 2-3-2-11-14-13-17-2-4 6-9 8-15h1c-4-9-18-2-19-12v-8l1-9c2-6 15-3 17-10 1-5-11-11-8-16s9-15 14-17l13 5c7 0 4-13 4-17 3-4 16-8 21-8s7 9 10 11c7 6 12-8 15-12"/><path fill="#c5effa" d="m312 364 12 4-2 12c2 3 10 8 14 11l11-5 8 8c-3 3-9 7-9 10-1 4 4 14 6 17l12 1c0 15 1 11-12 15-3 0-6 12-7 15q4 6 9 10l-7 10-12-7-14 11 2 12-11 5q-2-7-8-13l-11 1q-9 1-11 11l-1 1-11-6q3-5 2-9c-2-5-10-10-13-12l-12 5-6-9q3-5 8-9c-1-4-4-14-7-17l-13-2 1-12 13-1c2-3 6-13 6-17 0-2-7-7-9-9l6-9 12 5 14-10-2-12 11-4 5 10 3 1h16q5-4 7-12"/><path fill="#8cceef" d="M293 384a44 44 0 1 1 8 88 44 44 0 0 1-8-88"/><path fill="#0e4162" d="M297 395a34 34 0 1 1 0 67 34 34 0 0 1 0-67"/><path fill="#fff" d="M294 404a25 25 0 1 1 5 49 25 25 0 0 1-5-49"/><path fill="#0e4162" d="M368 297h29q7 2 4 9h-14v8l19 1q7 3 12 9 20-10 41-17l11-4h1l10 9q0 4-4 6l-6-2-8 10-35 45h-33c-10 0-39 1-47-2q-3-6-2-14v-16c-8-3-24-9-29-14l-1-2c0-3 6-21 8-23l3-1c6 1 17 6 22 10q4 2 7 6 11-2 23-1v-9h-14q-4-3-1-7z"/><path fill="#8cceef" d="m459 317-5 7-12 15-19 24h-68v-39h49c4 1 7 7 12 8q5 0 10-3l18-7q8-1 15-5"/><path fill="#fff" d="m330 309 16 8-1 14-2-1c-5-2-15-7-18-10z"/><path fill="#4097c9" d="M479 331c2 1 21 25 1 29l-4-1c-11-5-5-16 0-23q0-2 3-5"/></svg>