<svg xmlns="http://www.w3.org/2000/svg" viewBox="-110 -46 590 590"><path fill="#104263" d="M94 13c13-2 60-1 80 2 17 2 48 7 60 22v21c-1 10 3 24-9 28v21c-2 11 3 25-9 30 0 5-1 31 1 34 4-2 68-1 73 0 87-65 82 162 48 202-2 2-35 1-41 1q-7-2-9-8c-4-3-63-2-72 0 0 50 1 60-1 98-12 8-39 18-53 19-39 4-110 10-136-25-2-107 4-214-2-321-4-1-7-9-6-12l-1-42-7-6-1-43c21-13 60-21 85-21"/><linearGradient id="a" x1="209.4" x2="32.9" y1="195" y2="192.4" gradientTransform="matrix(1 0 0 -1 0 502)" gradientUnits="userSpaceOnUse"><stop offset="0" style="stop-color:#b1e7fb"/><stop offset="1" style="stop-color:#fff"/></linearGradient><path d="M33 140c50 14 127 15 177-1l-1 32q-26 11-34 39c-12 41-12 92 6 132q9 19 28 24v92c-30 24-103 23-140 15-10-2-35-8-35-21v-97z" style="fill:url(#a)"/><path fill="#104263" d="M116 185c26 0 28 34 16 36-9-5 7-19-13-28-23 3-9 22-16 28-12-2-11-31 13-36"/><path fill="#104263" d="M115 201q4-2 7 1a7 7 0 0 1-3 12q-7 1-8-5t4-8"/><path fill="#c6eefc" d="M175 267c0-24 7-83 35-87 13-2 59-1 75 0q-11 42-11 86c1 38 2 54 11 91h-80c-26-18-30-62-30-90"/><path fill="#fff" d="M175 267c0-24 7-83 35-87 13-2 59-1 75 0q-11 42-11 86z"/><path fill="#1b2025" d="M24 41q-3 0-4-3l1-2c36-21 171-26 201 2-34 23-144 21-193 5z"/><path fill="#c6eefc" d="M119 35a335 335 0 0 1 91 11q-20 5-46 7-25 3-46 2z"/><path fill="#a0dcf8" d="M35 45q41-12 84-10l-1 20c-16 0-70-2-83-10"/><path fill="#c6eefc" d="M118 19c15 0 102 3 104 19l-5 3h-1a240 240 0 0 0-94-15q-4-2-4-7"/><linearGradient id="b" x1="74" x2="66.1" y1="462.7" y2="483.4" gradientTransform="matrix(1 0 0 -1 0 502)" gradientUnits="userSpaceOnUse"><stop offset="0" style="stop-color:#8fc8e4"/><stop offset="1" style="stop-color:#bdeafd"/></linearGradient><path d="m26 40-2 1q-3 0-4-3l1-2c15-13 76-17 97-17q0 5 4 7a269 269 0 0 0-96 14" style="fill:url(#b)"/><path fill="#1b2025" d="m330 179 3-6q2 0 3 2c14 20 19 81 16 104 0 18-6 75-18 86h-2l-2-9q-6-4-5-10-10-37-9-76a232 232 0 0 1 14-91"/><path d="M326 192c8 27 10 50 10 78h-20c-1-17 1-65 10-78" style="fill:#81c8ef"/><path fill="#c6eefc" d="M316 270h20c-1 31-3 46-11 76q-11-36-9-76"/><path fill="#a0dcf8" d="m330 179 3-6q2 0 3 2c14 20 19 81 16 104v-6q-3-3-7-2c0-29-2-66-15-92"/><path fill="#c6eefc" d="M345 271q4-1 7 2v7c0 17-6 74-18 85h-2l-3-9c13-28 14-55 16-85M111 101c41 0 66-1 106-12v37c-23 13-75 19-101 16l2-1c1-6 1-34-1-39z"/><path fill="#fff" d="M25 88c29 9 55 12 86 13l6 1c2 5 2 33 1 39l-2 1c-18 0-74-3-88-15-4-4-3-31-3-39"/><path fill="#c6eefc" d="M119 64c31 0 79-2 106-17l-1 28q-12 7-25 10c-21 5-79 11-99 7h19z"/><path fill="#fff" d="M17 47c25 14 73 17 102 17v28h-19c-21 1-64-6-82-17z"/><path fill="#c6eefc" d="m283 267 23-1 2-3c-1 30 2 75 15 101h-26c-13-25-14-69-14-97"/><path fill="#fff" d="M283 267v-9c0-18 3-71 16-85 3-3 19-2 25-1-14 27-16 61-16 91l-2 3z"/></svg>