<svg xmlns="http://www.w3.org/2000/svg" viewBox="-110 -68 2230 2230"><path fill="#144367" d="m681 161 25-7c13 21 10 25 10 49v818c10 4 21 7 25 19 7 18 9 53 4 72-4 14-37 27-36 35h5l18-8q14-8 29-4 18 6 25 22c8 16 7 126 0 144q-6 14-20 20a39 39 0 0 1-38-4l-5-3q-5-5-12-7l-2 1c-5 14 27 23 33 34 7 12 5 28 5 42-1 26-3 46-29 57l-1 1v66c23 0 65-5 80 12 10 10 10 19 11 32l128 1q34 1 67-1 7 0 12-5c10-8 8-36 8-49v-198c0-53-1-111 1-164-19 0-53 3-69-8-8-6-8-29-8-39 0-35 6-49 40-63-1-49 3-91 7-140q9-132 30-262c2-13 8-36 14-47 17-31 22-25 20-62l-1-1c-4-7-14-17-17-23-22-46-1-101 42-127q51-29 107-44 177-47 359-56c23-2 39-1 62 1 32 3 48 58 24 70-27 14-75 13-105 21l-53 11c-50 14-164 48-180 102q-3 14-9 26c-4 12-27 31-16 43 9 11 49 59 61 59 30 3 65-6 95-7 177-19 408 1 432 226q21 8 30 29c6 22 3 65-26 68-39 5-79 2-118 2l-85-1q-32-2-38-34c-6-34 4-46 27-67a87 87 0 0 0-61-45c-49-11-114 0-156 27-70 46-106 98-124 178q-5 25-8 52c17 11 35 21 37 43 2 21 7 53-11 67-20 3-48 2-68 2v272c0 50 4 119-7 166q-20 79-77 137c-23 22-37 29-64 43-68 35-128 28-201 28l-100-1c-7 56-51 38-92 42 0 16 2 108-3 114q-5 4-10 3-11-1-18-8l-22-2h-52c-23 2-57 1-81 1-6 10-21 12-27 5-8-10-5-51-5-64v-431q-16-7-24-22c-9-19-11-53-5-72q9-20 28-29c2-60-2-117 2-178-30-12-34-36-33-64 0-26 6-47 33-58-2-35-1-79-1-115V165c13-11 19-15 31-1 13-1 63-4 74-2z"/><path fill="#fa0603" d="m604 162 77-1c1 21-1 46-1 67v760l-1 30-58 1h-17q-3-62-2-125V314c0-18-2-144 2-152"/><path fill="#f96969" d="M530 164c13-1 63-4 74-2-4 8-2 134-2 152v580q-1 63 2 125h17q-45 2-88 1-2-43-1-86l1-166-1-372V245c0-21 1-61-2-81"/><path fill="#fa0603" d="M603 1441c20 1 58 2 78 1v362l1 80c0 8 3 40-1 45q-8 3-17 2h-60c-5-9-2-436-1-490"/><path fill="#f96969" d="M532 1441h71c-1 54-4 481 1 490h8c-23 2-57 1-81 1l1-44c1-149-2-298 0-447"/><path fill="#b00e0e" d="M732 1139q14-8 29-4 18 6 25 22c8 16 7 126 0 144q-6 14-20 20a39 39 0 0 1-38-4l-5-3 6-12c-1-14-3-17-3-34-1-7-1-6-6-11-6 1-17 2-22 0q7 1 12-1l-2-49-10-3q12 2 23-1c3-3 2-2 3-7-2-21 3-33-10-49z"/><path fill="#630502" d="M732 1139q14-8 29-4 18 6 25 22c8 16 7 126 0 144q-6 14-20 20a39 39 0 0 1-38-4l4-21c5 6 7 7 13 11q16-10 19-29c2-30 1-55 0-86 0-16-6-58-34-41-5 3-4 20-4 27-6-23 5-28 6-39"/><path fill="#591e2b" d="M724 1196c5 26 3 45 2 72-1-7-1-6-6-11-6 1-17 2-22 0q7 1 12-1l-2-49-10-3q12 2 23-1c3-3 2-2 3-7"/><path fill="#220109" d="m714 1147 18-8c-1 11-12 16-6 39l5 49c1 18-5 56 1 69l-4 21-5-3 6-12c-1-14-3-17-3-34 1-27 3-46-2-72-2-21 3-33-10-49"/><path fill="#a1232e" d="M663 1228q8-28 35-24l10 3 2 49q-5 2-12 1c-21-2-30-7-35-29"/><path fill="#fff" d="M1142 580c44 1 77 2 122-4 16 22 40 56 71 54 165-11 434-58 487 160l7 28q-39 2-77 1l-68-1c-5-25-24-49-45-63-33-21-73-26-112-23-87 6-163 58-210 131q-45 76-47 165l-88-1h-164q1-68 7-135c8-92 14-186 32-276q3-24 21-39z"/><path fill="#c0ebf9" d="M1182 1027a362 362 0 0 1 184-297c48-27 116-44 171-44q47 2 93 14c51 15 98 52 117 103l5 16-68-1c-5-25-24-49-45-63-33-21-73-26-112-23-87 6-163 58-210 131q-45 76-47 165zm-104-450 64 3c3 15-2 47-3 60-1 31-10 88-14 115-3 29-24 262-20 272h-87q1-68 7-135c8-92 14-186 32-276q3-24 21-39m-20 559h55l111 1v340c0 30 1 66-6 95a232 232 0 0 1-166 172c-30 7-76 5-108 6H807l1-96v-69h129c25 0 53 2 77-2 19-4 39-26 41-45l2-53v-244q-1-52 1-105"/><path fill="#fff" d="M1058 1136h55c3 2 21 1 26 1l-1 273c0 44 3 97-4 140-4 25-23 57-40 74-13 12-39 30-57 34-36 7-83 6-120 6h-90l-17-1-2-9v-69h129c25 0 53 2 77-2 19-4 39-26 41-45l2-53v-244q-1-52 1-105"/><path fill="#e8f9fd" d="M1195 352a1710 1710 0 0 1 315-54l54-3c16 0 32-2 46 6l4 4c-1 4 0 2-3 5-8 4-47 7-60 8a1225 1225 0 0 0-136 31l-35 14c-7 5-21 9-30 14-36 19-76 42-85 86l-6 28c-17 3-57 5-75 5h-16c-18 3-67 0-84-7-28-12-24-46-12-69 21-39 84-56 123-68"/><path fill="#c0ebf9" d="M1168 496c-18 3-67 0-84-7-28-12-24-46-12-69 21-39 84-56 123-68 6 22-44 133-27 144m16 0 7-1c17-69 75-121 143-135l17-4-30 9q-43 12-75 43l-2 4c4 6 25 17 33 16l17-18c8-9 78-51 86-47-7 5-21 9-30 14-36 19-76 42-85 86l-6 28c-17 3-57 5-75 5m-648 641h143v34c-22 21-46 31-39 69q5 28 32 40l16 8q-1 15-5 30c-14 4-53 4-69 4l-84 1c0-23-1-181 2-185zm477-78h55l111 1h77l46 1q4 21 4 44H981l1-43zm-295 484c14-2 42-2 56 0 1 38 2 87 0 125v124h-57c-2-30 0-74 0-104 0-31-1-82 1-112z"/><path fill="#fff" d="M718 1543c14-2 42-2 56 0 1 38 2 87 0 125-9-3-43-1-56-1-1-29 2-64 0-91z"/><path fill="#c0ebf9" d="M1666 850h7c55-1 112 2 167 1 3 0 10 0 12 2 6 7 5 19 5 28l-11 1c-19 0-179 2-189-1-4-5-5-23-1-28q4-3 10-3"/><path fill="#fa0603" d="M600 1354c30-3 78-1 109 0v53c-27 2-84 4-110 0zm3-301 111 1v52l-75 2c-9 0-27 1-35-1z"/><path fill="#f96969" d="M500 1053h103l1 54c-33-1-70 2-103-2-3-15-2-36-1-52m-1 352c0-11-2-37 4-46 2-2 8-3 10-3l87-2-1 53c-32-2-70 1-100-2"/><path fill="#c0ebf9" d="M1087 525c35 8 121 4 157 1l1 21q-80 1-159-2z"/><path fill="#144367" d="M329 163q6 1 12-1l2-6c8-6 22 6 22 9 3 34 2 113 2 142v712c36 8 37 56 32 85-4 22-25 21-32 38v15c17-23 32-33 59-15 20 12 19 28 19 49 0 33 3 66-1 98-3 28-41 46-63 28-3-2-12-8-16-9-4 15 17 17 25 24q10 12 9 26c3 43 9 64-33 84l1 354v80c0 18 1 42-2 60-1 4-9 6-13 5-10-2-14-3-19-12-16 2-58 1-76 1l-41 1h-32l-13 9-15-7c-2-12-1-40-1-53v-302c0-44-1-92 1-136-44-22-36-50-34-92 1-14 19-23 29-29l-1-113v-73c-6-4-20-11-23-17-10-16-7-53-5-70 2-15 21-22 33-30q2-293 0-587V262c0-28-1-72 1-98l13-9c7 0 8 3 14 8l1 1c8-2 58-1 70-2z"/><path fill="#0680e3" d="m254 162 75 1c3 4 2 4 3 8q5 82 3 162v524l-1 102v60l-85 1q4 1 7-2-3-290-1-580V278q1-59-1-116"/><path fill="#71c4fa" d="M184 164c8-2 58-1 70-2q2 57 1 116v160q-2 290 1 580-3 2-7 2h-62V891l1-320-1-279V173q0-5-3-9"/><path fill="#0680e3" d="M256 1441q39-1 77 1l1 36c2 75-2 150-1 226l1 132c0 24 3 64-1 88q-13 0-25 5h25c-16 2-58 1-76 1-3-57-2-124-2-183z"/><path fill="#71c4fa" d="M187 1441h69l-1 306c0 59-1 126 2 183l-41 1h-32c5-4 3-43 3-52l1-92z"/><path fill="#c0ebf9" d="M184 1137c49-1 100 2 151 1v35l-5 3c-31 16-47 46-30 81 7 15 23 22 39 26q-6 20-4 39H185c-3-36 0-73-1-109z"/><path fill="#0680e3" d="M156 1355c22-2 61 0 84 0h127v52q-24 3-49 2h-63c-20 0-47 1-66-1l-34-1q-2-26 1-52"/><path fill="#71c4fa" d="M156 1355c22-2 61 0 84 0l17 1v52h-68l-34-1q-2-26 1-52"/><path fill="#0680e3" d="M258 1051h19l89-1c2 23 0 35 0 56H257z"/><path fill="#71c4fa" d="m258 1051-1 55c-16 1-86 2-101-1q-4-27-1-53z"/><path fill="#0680e3" d="M401 1167q7-1 10 4c1 19 7 107 1 122h-9c-7-4-9-6-14-12-3-19-1-70-1-92q1-13 13-22m-55 38q7-1 15 1 2 24-2 46l-17 1q-17-3-18-19c-3-25 0-26 22-29"/><path fill="#144367" d="M1686 1222q10 0 15 8c19 25 33 55 47 82 25 46-7 97-56 103-45 0-83-42-69-88 7-22 21-43 32-65 6-13 18-33 31-40"/><path fill="#c0ebf9" d="M1686 1270c3 2 22 34 25 39 17 27 19 66-20 76-13 1-30-11-34-23-12-30 17-64 28-91z"/><path fill="#144367" d="M1688 950c15 4 38 52 46 66 33 53 31 120-45 129l-9-1c-37-4-67-40-59-77 6-30 43-99 67-117"/><path fill="#c0ebf9" d="M1686 1002c27 26 65 101 3 112q-9 0-16-4c-43-23-4-81 13-108"/><path fill="#144367" d="M1820 1084c16 0 44 57 51 71 7 13 15 32 17 48q4 25-12 47a71 71 0 0 1-63 27c-32-2-63-36-59-68 3-29 19-58 34-82 9-15 18-32 32-43"/><path fill="#c0ebf9" d="M1819 1136c4 1 11 12 14 16 19 27 42 87-11 94q-11 0-20-6c-38-22 3-81 17-104"/></svg>